<svg width="1323" height="944" viewBox="0 0 1323 944" fill="none" xmlns="http://www.w3.org/2000/svg">
<rect width="1323" height="944" fill="#F1F1F1"/>
<path opacity="0.25" d="M11.71 4.86H6.85004V0H4.86005V4.86H0V6.84999H4.86005V11.71H6.85004V6.84999H11.71V4.86Z" transform="translate(265 572)" fill="#535461"/>
<path opacity="0.25" d="M11.71 4.86H6.85004V0H4.86005V4.86H0V6.84999H4.86005V11.71H6.85004V6.84999H11.71V4.86Z" transform="translate(214 750)" fill="#535461"/>
<path opacity="0.25" d="M11.71 4.86H6.85004V0H4.86005V4.86H0V6.84999H4.86005V11.71H6.85004V6.84999H11.71V4.86Z" transform="translate(199 239)" fill="#535461"/>
<path opacity="0.25" d="M11.71 4.86H6.85004V0H4.86005V4.86H0V6.84999H4.86005V11.71H6.85004V6.84999H11.71V4.86Z" transform="translate(1158 841)" fill="#535461"/>
<path opacity="0.25" d="M11.71 4.86H6.85004V0H4.86005V4.86H0V6.84999H4.86005V11.71H6.85004V6.84999H11.71V4.86Z" transform="translate(1280 494)" fill="#535461"/>
<path opacity="0.25" d="M11.71 4.86H6.85004V0H4.86005V4.86H0V6.84999H4.86005V11.71H6.85004V6.84999H11.71V4.86Z" transform="translate(1146 345)" fill="#535461"/>
<path opacity="0.25" d="M11.71 4.86H6.85004V0H4.86005V4.86H0V6.84999H4.86005V11.71H6.85004V6.84999H11.71V4.86Z" transform="translate(1218 181)" fill="#535461"/>
<path opacity="0.25" d="M11.71 4.86H6.85004V0H4.86005V4.86H0V6.84999H4.86005V11.71H6.85004V6.84999H11.71V4.86Z" transform="translate(1170 108)" fill="#535461"/>
<path opacity="0.25" d="M11.71 4.86H6.85004V0H4.86005V4.86H0V6.84999H4.86005V11.71H6.85004V6.84999H11.71V4.86Z" transform="translate(123 35)" fill="#535461"/>
<path opacity="0.25" d="M11.71 4.86H6.85004V0H4.86005V4.86H0V6.84999H4.86005V11.71H6.85004V6.84999H11.71V4.86Z" transform="translate(25 271)" fill="#535461"/>
<path opacity="0.25" d="M11.71 4.86H6.85004V0H4.86005V4.86H0V6.84999H4.86005V11.71H6.85004V6.84999H11.71V4.86Z" transform="translate(80 549)" fill="#535461"/>
<path opacity="0.25" d="M11.71 4.86H6.85004V0H4.86005V4.86H0V6.84999H4.86005V11.71H6.85004V6.84999H11.71V4.86Z" transform="translate(31 738)" fill="#535461"/>
<path d="M104.76 0H0V64.38H104.76V0Z" transform="translate(674.883 524.442) rotate(-16.6)" fill="url(#paint0_linear)"/>
<path d="M101.21 0H0V60.09H101.21V0Z" transform="translate(676.568 525.6) rotate(-16.6)" fill="white"/>
<g opacity="0.6">
<path opacity="0.6" d="M12.88 0H0V9.53003H12.88V0Z" transform="translate(697.202 534.075) rotate(163.4)" fill="#6C63FF"/>
<path opacity="0.6" d="M49.44 0H0V3.09003H49.44V0Z" transform="translate(747.659 538.376) rotate(163.4)" fill="#6C63FF"/>
<path opacity="0.6" d="M36.05 0H0V2.06H36.05V0Z" transform="translate(749.577 544.789) rotate(163.4)" fill="#6C63FF"/>
</g>
<path d="M64.38 0H0V104.76H64.38V0Z" transform="translate(919.424 411.441) rotate(-78.98)" fill="url(#paint1_linear)"/>
<path d="M60.09 0H0V101.21H60.09V0Z" transform="translate(919.649 409.919) scale(0.998248) rotate(-79.0278)" fill="white"/>
<g opacity="0.6">
<path opacity="0.6" d="M12.88 0H0V9.53H12.88V0Z" transform="translate(946.925 367.216) rotate(-168.98)" fill="#6C63FF"/>
<path opacity="0.6" d="M49.44 0H0V3.09H49.44V0Z" transform="translate(989.635 394.418) rotate(-168.98)" fill="#6C63FF"/>
<path opacity="0.6" d="M36.05 0H0V2.06H36.05V0Z" transform="translate(988.36 400.999) rotate(-168.98)" fill="#6C63FF"/>
</g>
<path d="M64.38 0H0V104.76H64.38V0Z" transform="translate(936.615 498.626) rotate(-23.45)" fill="url(#paint2_linear)"/>
<path d="M60.09 0H0V101.21H60.09V0Z" transform="translate(939.594 498.739) rotate(-23.45)" fill="white"/>
<g opacity="0.6">
<path opacity="0.6" d="M12.88 0H0V9.53003H12.88V0Z" transform="translate(988.619 496.288) rotate(-113.45)" fill="#47E6B1"/>
<path opacity="0.6" d="M49.44 0H0V3.08997H49.44V0Z" transform="translate(990.366 546.9) rotate(-113.45)" fill="#47E6B1"/>
<path opacity="0.6" d="M36.05 0H0V2.06H36.05V0Z" transform="translate(984.215 549.569) rotate(-113.45)" fill="#47E6B1"/>
</g>
<path d="M104.76 0H0V64.38H104.76V0Z" transform="translate(608.426 220.953) rotate(-16.6)" fill="url(#paint3_linear)"/>
<path d="M101.21 0H0V60.09H101.21V0Z" transform="translate(610.111 222.121) rotate(-16.6)" fill="white"/>
<g opacity="0.6">
<path opacity="0.6" d="M12.88 0H0V9.53H12.88V0Z" transform="translate(630.689 230.615) rotate(163.4)" fill="#F55F44"/>
<path opacity="0.6" d="M49.44 0H0V3.09H49.44V0Z" transform="translate(681.155 234.912) rotate(163.4)" fill="#F55F44"/>
<path opacity="0.6" d="M36.05 0H0V2.06H36.05V0Z" transform="translate(683.064 241.329) rotate(163.4)" fill="#F55F44"/>
</g>
<path d="M64.38 0H0V104.76H64.38V0Z" transform="translate(852.942 107.967) rotate(-78.98)" fill="url(#paint4_linear)"/>
<path d="M60.09 0H0V101.21H60.09V0Z" transform="translate(854.719 105.579) rotate(-78.98)" fill="white"/>
<g opacity="0.6">
<path opacity="0.6" d="M12.88 0H0V9.53H12.88V0Z" transform="translate(880.441 63.7475) rotate(-168.98)" fill="#6C63FF"/>
<path opacity="0.6" d="M49.44 0H0V3.09H49.44V0Z" transform="translate(923.151 90.9503) rotate(-168.98)" fill="#6C63FF"/>
<path opacity="0.6" d="M36.05 0H0V2.06H36.05V0Z" transform="translate(921.877 97.5232) rotate(-168.98)" fill="#6C63FF"/>
</g>
<path d="M64.38 0H0V104.76H64.38V0Z" transform="translate(870.121 195.16) rotate(-23.45)" fill="url(#paint5_linear)"/>
<path d="M60.09 0H0V101.21H60.09V0Z" transform="translate(873.109 195.269) rotate(-23.45)" fill="white"/>
<g opacity="0.6">
<path opacity="0.6" d="M12.88 0H0V9.53H12.88V0Z" transform="translate(922.139 192.823) rotate(-113.45)" fill="#47E6B1"/>
<path opacity="0.6" d="M49.44 0H0V3.09H49.44V0Z" transform="translate(923.876 243.435) rotate(-113.45)" fill="#47E6B1"/>
<path opacity="0.6" d="M36.05 0H0V2.06H36.05V0Z" transform="translate(917.729 246.112) rotate(-113.45)" fill="#47E6B1"/>
</g>
<path d="M104.76 0H0V64.38H104.76V0Z" transform="translate(326.374 449.346) rotate(-16.6)" fill="url(#paint6_linear)"/>
<path d="M101.21 0H0V60.09H101.21V0Z" transform="translate(328.069 450.511) rotate(-16.6)" fill="white"/>
<g opacity="0.6">
<path opacity="0.6" d="M12.88 0H0V9.53H12.88V0Z" transform="translate(348.694 459.044) rotate(163.4)" fill="#6C63FF"/>
<path opacity="0.6" d="M49.44 0H0V3.09003H49.44V0Z" transform="translate(399.16 463.342) rotate(163.4)" fill="#6C63FF"/>
<path opacity="0.6" d="M36.05 0H0V2.06H36.05V0Z" transform="translate(401.078 469.755) rotate(163.4)" fill="#6C63FF"/>
</g>
<path d="M64.38 0H0V104.76H64.38V0Z" transform="translate(570.922 336.377) rotate(-78.98)" fill="url(#paint7_linear)"/>
<path d="M60.09 0H0V101.21H60.09V0Z" transform="translate(571.665 334.397) scale(0.998248) rotate(-79.0278)" fill="white"/>
<g opacity="0.6">
<path opacity="0.6" d="M12.88 0H0V9.53H12.88V0Z" transform="translate(598.411 292.148) rotate(-168.98)" fill="#F55F44"/>
<path opacity="0.6" d="M49.44 0H0V3.09H49.44V0Z" transform="translate(641.131 319.353) rotate(-168.98)" fill="#F55F44"/>
<path opacity="0.6" d="M36.05 0H0V2.06003H36.05V0Z" transform="translate(639.856 325.933) rotate(-168.98)" fill="#F55F44"/>
</g>
<path d="M64.38 0H0V104.76H64.38V0Z" transform="translate(588.105 423.565) rotate(-23.45)" fill="url(#paint8_linear)"/>
<path d="M60.09 0H0V101.21H60.09V0Z" transform="translate(591.094 423.675) rotate(-23.45)" fill="white"/>
<g opacity="0.6">
<path opacity="0.6" d="M12.88 0H0V9.53H12.88V0Z" transform="translate(640.115 421.229) rotate(-113.45)" fill="#47E6B1"/>
<path opacity="0.6" d="M49.44 0H0V3.09H49.44V0Z" transform="translate(641.861 471.83) rotate(-113.45)" fill="#47E6B1"/>
<path opacity="0.6" d="M36.05 0H0V2.06H36.05V0Z" transform="translate(635.714 474.504) rotate(-113.45)" fill="#47E6B1"/>
</g>
<path d="M104.76 0H0V64.38H104.76V0Z" transform="translate(338.187 268.118) rotate(-16.6)" fill="url(#paint9_linear)"/>
<path d="M101.21 0H0V60.09H101.21V0Z" transform="translate(341.504 268.749) scale(1.00285) rotate(-16.8087)" fill="white"/>
<g opacity="0.6">
<path opacity="0.6" d="M12.88 0H0V9.53H12.88V0Z" transform="translate(360.478 277.819) rotate(163.4)" fill="#6C63FF"/>
<path opacity="0.6" d="M49.44 0H0V3.09003H49.44V0Z" transform="translate(410.935 282.12) rotate(163.4)" fill="#6C63FF"/>
<path opacity="0.6" d="M36.05 0H0V2.06H36.05V0Z" transform="translate(412.853 288.534) rotate(163.4)" fill="#6C63FF"/>
</g>
<path d="M64.38 0H0V104.76H64.38V0Z" transform="translate(581.957 155.798) scale(0.998248) rotate(-79.0278)" fill="url(#paint10_linear)"/>
<path d="M60.09 0H0V101.21H60.09V0Z" transform="translate(584.494 152.765) rotate(-78.98)" fill="white"/>
<g opacity="0.6">
<path opacity="0.6" d="M12.88 0H0V9.53H12.88V0Z" transform="translate(610.216 110.932) rotate(-168.98)" fill="#6C63FF"/>
<path opacity="0.6" d="M49.44 0H0V3.09H49.44V0Z" transform="translate(652.928 138.125) rotate(-168.98)" fill="#6C63FF"/>
<path opacity="0.6" d="M36.05 0H0V2.06H36.05V0Z" transform="translate(651.643 144.706) rotate(-168.98)" fill="#F55F44"/>
</g>
<path d="M64.38 0H0V104.76H64.38V0Z" transform="translate(599.904 242.347) rotate(-23.45)" fill="url(#paint11_linear)"/>
<path d="M60.09 0H0V101.21H60.09V0Z" transform="translate(602.884 242.46) rotate(-23.45)" fill="white"/>
<g opacity="0.6">
<path opacity="0.6" d="M12.88 0H0V9.53H12.88V0Z" transform="translate(651.92 240.009) rotate(-113.45)" fill="#47E6B1"/>
<path opacity="0.6" d="M49.44 0H0V3.09H49.44V0Z" transform="translate(653.657 290.62) rotate(-113.45)" fill="#47E6B1"/>
<path opacity="0.6" d="M36.05 0H0V2.06H36.05V0Z" transform="translate(647.515 293.275) rotate(-113.45)" fill="#47E6B1"/>
</g>
<path opacity="0.25" d="M5.47 10.94C8.491 10.94 10.94 8.491 10.94 5.47C10.94 2.449 8.491 0 5.47 0C2.449 0 0 2.449 0 5.47C0 8.491 2.449 10.94 5.47 10.94Z" transform="translate(335.43 96.79)" fill="#535461"/>
<path opacity="0.25" d="M5.47003 10.94C8.49103 10.94 10.94 8.49097 10.94 5.46997C10.94 2.44897 8.49103 0 5.47003 0C2.44903 0 0 2.44897 0 5.46997C0 8.49097 2.44903 10.94 5.47003 10.94Z" transform="translate(906.49 575.89)" fill="#535461"/>
<path opacity="0.25" d="M5.46999 10.94C8.49098 10.94 10.94 8.49097 10.94 5.46997C10.94 2.44897 8.49098 0 5.46999 0C2.44899 0 0 2.44897 0 5.46997C0 8.49097 2.44899 10.94 5.46999 10.94Z" transform="translate(423.32 548.69)" fill="#535461"/>
<path opacity="0.25" d="M5.46997 10.94C8.49097 10.94 10.94 8.491 10.94 5.47C10.94 2.449 8.49097 0 5.46997 0C2.44897 0 0 2.449 0 5.47C0 8.491 2.44897 10.94 5.46997 10.94Z" transform="translate(957.34 472.55)" fill="#535461"/>
<path opacity="0.25" d="M5.47003 10.94C8.49103 10.94 10.94 8.491 10.94 5.47C10.94 2.449 8.49103 0 5.47003 0C2.44903 0 0 2.449 0 5.47C0 8.491 2.44903 10.94 5.47003 10.94Z" transform="translate(1008.81 221.63)" fill="#535461"/>
<path opacity="0.25" d="M11.71 4.87H6.84998V0H4.85999V4.87H0V6.85H4.85999V11.71H6.84998V6.85H11.71V4.87Z" transform="translate(598.73 41)" fill="#535461"/>
<path opacity="0.25" d="M11.71 4.86H6.84999V0H4.86V4.86H0V6.85H4.86V11.71H6.84999V6.85H11.71V4.86Z" transform="translate(411.58 115.54)" fill="#535461"/>
<path opacity="0.25" d="M11.71 4.86002H6.85V0H4.86V4.86002H0V6.85001H4.86V11.71H6.85V6.85001H11.71V4.86002Z" transform="translate(335.45 393.27)" fill="#535461"/>
<path opacity="0.25" d="M11.72 4.87001H6.85V0H4.87V4.87001H0V6.85001H4.87V11.72H6.85V6.85001H11.72V4.87001Z" transform="translate(324.51 195.2)" fill="#535461"/>
<path opacity="0.25" d="M11.71 4.87003H6.85V0H4.87V4.87003H0V6.85001H4.87V11.71H6.85V6.85001H11.71V4.87003Z" transform="translate(277 331.3)" fill="#535461"/>
<path opacity="0.25" d="M11.71 4.87H6.85004V0H4.85999V4.87H0V6.84998H4.85999V11.72H6.85004V6.84998H11.71V4.87Z" transform="translate(963.05 324.39)" fill="#535461"/>
<path opacity="0.25" d="M11.72 4.86H6.85004V0H4.87V4.86H0V6.85H4.87V11.71H6.85004V6.85H11.72V4.86Z" transform="translate(818.36 153.76)" fill="#535461"/>
<path opacity="0.1" d="M47 0C47 0 5.85 22.34 0 67Z" transform="translate(472.32 219.86)" fill="white"/>
<path opacity="0.1" d="M47 0C47 0 5.85 22.34 0 67Z" transform="translate(599.93 134.07)" fill="white"/>
<path opacity="0.1" d="M47 0C47 0 5.85 22.34 0 67Z" transform="translate(726.46 243.45)" fill="white"/>
<path opacity="0.25" d="M5.47003 10.94C8.49103 10.94 10.94 8.49097 10.94 5.46997C10.94 2.44897 8.49103 0 5.47003 0C2.44903 0 0 2.44897 0 5.46997C0 8.49097 2.44903 10.94 5.47003 10.94Z" transform="translate(86 153)" fill="#535461"/>
<path opacity="0.25" d="M5.47003 10.94C8.49103 10.94 10.94 8.49097 10.94 5.46997C10.94 2.44897 8.49103 0 5.47003 0C2.44903 0 0 2.44897 0 5.46997C0 8.49097 2.44903 10.94 5.47003 10.94Z" transform="translate(34 617)" fill="#535461"/>
<path opacity="0.25" d="M5.47003 10.94C8.49103 10.94 10.94 8.49097 10.94 5.46997C10.94 2.44897 8.49103 0 5.47003 0C2.44903 0 0 2.44897 0 5.46997C0 8.49097 2.44903 10.94 5.47003 10.94Z" transform="translate(309 908)" fill="#535461"/>
<path opacity="0.25" d="M5.47003 10.94C8.49103 10.94 10.94 8.49097 10.94 5.46997C10.94 2.44897 8.49103 0 5.47003 0C2.44903 0 0 2.44897 0 5.46997C0 8.49097 2.44903 10.94 5.47003 10.94Z" transform="translate(1016 848)" fill="#535461"/>
<path opacity="0.25" d="M5.47003 10.94C8.49103 10.94 10.94 8.49097 10.94 5.46997C10.94 2.44897 8.49103 0 5.47003 0C2.44903 0 0 2.44897 0 5.46997C0 8.49097 2.44903 10.94 5.47003 10.94Z" transform="translate(1121 535)" fill="#535461"/>
<path opacity="0.25" d="M5.47003 10.94C8.49103 10.94 10.94 8.49097 10.94 5.46997C10.94 2.44897 8.49103 0 5.47003 0C2.44903 0 0 2.44897 0 5.46997C0 8.49097 2.44903 10.94 5.47003 10.94Z" transform="translate(1158 36)" fill="#535461"/>
<path opacity="0.25" d="M5.47003 10.94C8.49103 10.94 10.94 8.49097 10.94 5.46997C10.94 2.44897 8.49103 0 5.47003 0C2.44903 0 0 2.44897 0 5.46997C0 8.49097 2.44903 10.94 5.47003 10.94Z" transform="translate(1287 372)" fill="#535461"/>
<path fill-rule="evenodd" clip-rule="evenodd" d="M233.065 48.9654C256.554 43.7672 271 36.6966 271 28.9062C271 12.9418 210.335 0 135.5 0C60.6654 0 0 12.9418 0 28.9062C0 36.6966 14.446 43.7672 37.9352 48.9654C44.3781 63.0992 85.6039 74 135.5 74C185.396 74 226.622 63.0992 233.065 48.9654Z" transform="translate(523 623)" fill="black" fill-opacity="0.18"/>
<ellipse cx="135.5" cy="28.9062" rx="135.5" ry="28.9062" transform="translate(523 618.375)" fill="#F6F6F6"/>
<ellipse cx="98.4402" cy="28.9062" rx="98.4402" ry="28.9062" transform="translate(560.06 634.562)" fill="#F6F6F6"/>
<path d="M175.534 25.4375C175.534 28.6986 173.244 31.9138 168.835 34.9261C164.443 37.9272 158.055 40.6498 150.116 42.9442C134.244 47.5311 112.289 50.375 88.0171 50.375C63.7451 50.375 41.7898 47.5311 25.9184 42.9442C17.9794 40.6498 11.5911 37.9272 7.1989 34.9261C2.7904 31.9138 0.5 28.6986 0.5 25.4375C0.5 22.1764 2.7904 18.9612 7.1989 15.9489C11.5911 12.9478 17.9794 10.2252 25.9184 7.93081C41.7898 3.34389 63.7451 0.5 88.0171 0.5C112.289 0.5 134.244 3.34389 150.116 7.93081C158.055 10.2252 164.443 12.9478 168.835 15.9489C173.244 18.9612 175.534 22.1764 175.534 25.4375Z" transform="translate(571.641 627.625)" stroke="black" stroke-opacity="0.18" style="mix-blend-mode:darken"/>
<path d="M0.978002 0C-2.18526 10.5716 2.55963 23.0694 11.8235 28.6344C15.7007 30.9609 20.1745 32.1427 23.9433 34.6647C32.1226 40.1459 35.3491 50.6616 38.0063 60.3305C41.0521 71.4511 44.1159 83.2045 41.3232 94.3902C39.5156 101.519 35.4938 107.828 33.1891 114.807C31.2641 120.651 30.595 126.855 31.2279 132.991C31.5623 136.248 32.3576 139.636 34.5177 142.037C37.6448 145.508 42.6518 146.029 47.1707 146.866C56.7414 148.737 65.7451 152.918 73.4432 159.065C81.1412 165.212 87.3144 173.15 91.4564 182.229" transform="matrix(0.931546 -0.363624 0.3397 0.940534 512 388.607)" stroke="url(#paint12_linear)" stroke-width="2" stroke-miterlimit="10"/>
<path d="M0.978002 0C-2.18526 10.5716 2.55963 23.0694 11.8235 28.6344C15.7007 30.9609 20.1745 32.1427 23.9433 34.6647C32.1226 40.1459 35.3491 50.6616 38.0063 60.3305C41.0521 71.4511 44.1159 83.2045 41.3232 94.3902C39.5156 101.519 35.4938 107.828 33.1891 114.807C31.2641 120.651 30.595 126.855 31.2279 132.991C31.5623 136.248 32.3576 139.636 34.5177 142.037C37.6448 145.508 42.6518 146.029 47.1707 146.866C56.7414 148.737 65.7451 152.918 73.4432 159.065C81.1412 165.212 87.3144 173.15 91.4564 182.229" transform="matrix(0.931546 -0.363624 0.3397 0.940534 512.901 388.256)" stroke="#535461" stroke-width="2" stroke-miterlimit="10"/>
<path d="M23.51 14.11H0L4.10999 0H18.22L23.51 14.11Z" transform="translate(503.514 387.599) rotate(-20.5801)" fill="#A32655"/>
<path d="M195.16 97.58C195.16 151.47 151.47 230.43 97.58 230.43C43.69 230.43 0 151.43 0 97.58C0 71.7002 10.2807 46.8803 28.5805 28.5805C46.8803 10.2807 71.7002 0 97.58 0C123.46 0 148.28 10.2807 166.579 28.5805C184.879 46.8803 195.16 71.7002 195.16 97.58V97.58Z" transform="translate(341 200.602) rotate(-20.5801)" fill="#A32655"/>
<path d="M22.34 4.70001H8.23001L0 0H30.57L22.34 4.70001Z" transform="translate(498.212 385.2) rotate(-20.5801)" fill="#535461"/>
<path opacity="0.1" d="M47 0C47 0 5.85 22.34 0 67Z" transform="translate(378.28 175) rotate(1.94977)" fill="white"/>
<path d="M23.6374 0L27.6963 31.9128C28.2316 36.1553 28.6697 40.7827 26.3336 44.3963C24.0949 47.8223 19.8997 49.4555 16.6001 51.9897C5.89315 60.2964 6.86652 76.2528 10.5263 89.0461C14.1861 101.839 19.5591 115.581 14.4197 127.886C12.2978 132.964 8.57959 137.272 5.74713 141.965C1.00019 150.113 -0.881489 159.525 0.383933 168.791" transform="matrix(0.89076 0.454474 -0.504079 0.863658 742.084 381)" stroke="url(#paint13_linear)" stroke-width="2" stroke-miterlimit="10"/>
<path d="M23.6374 0L27.6963 31.9128C28.2316 36.1553 28.6697 40.7827 26.3336 44.3963C24.0949 47.8223 19.8997 49.4555 16.6001 51.9897C5.89315 60.2964 6.86652 76.2528 10.5263 89.0461C14.1861 101.839 19.5591 115.581 14.4197 127.886C12.2978 132.964 8.57959 137.272 5.74713 141.965C1.00019 150.113 -0.881489 159.525 0.383933 168.791" transform="matrix(0.89076 0.454474 -0.504079 0.863658 742.951 381.442)" stroke="#535461" stroke-width="2" stroke-miterlimit="10"/>
<path d="M23.52 14.1H0L4.12 0H18.22L23.52 14.1Z" transform="translate(758.964 383.214) rotate(28.6212)" fill="#A32655"/>
<path d="M195.16 97.58C195.16 151.47 151.47 230.43 97.58 230.43C43.69 230.43 0 151.43 0 97.58C7.71279e-07 71.7002 10.2807 46.8803 28.5805 28.5805C46.8803 10.2807 71.7002 0 97.58 0C123.46 0 148.28 10.2807 166.579 28.5805C184.879 46.8803 195.16 71.7002 195.16 97.58V97.58Z" transform="translate(794.349 138) rotate(28.6212)" fill="#A32655"/>
<path d="M22.33 4.70001H8.22998L0 0H30.56L22.33 4.70001Z" transform="translate(757.329 377.628) rotate(28.6212)" fill="#535461"/>
<path d="M23.51 14.11H0L4.11002 0H18.22L23.51 14.11Z" transform="translate(643.43 318.2)" fill="#FFC021"/>
<g opacity="0.1" transform="translate(777.244 166) rotate(19.3902)">
<path d="M47 0C47 0 5.85 22.34 0 67Z" fill="white"/>
<path d="M47 0C47 0 5.85 22.34 0 67Z" fill="white"/>
</g>
<path d="M22.34 4.70999H8.23001L0 0H30.57L22.34 4.70999Z" transform="translate(639.31 314.08)" fill="#535461"/>
<path opacity="0.1" d="M47 0C47 0 5.85 22.34 0 67Z" transform="translate(698.86 217.13)" fill="white"/>
<path opacity="0.1" d="M47 0C47 0 5.85 22.34 0 67Z" transform="translate(579 105)" fill="white"/>
<path fill-rule="evenodd" clip-rule="evenodd" d="M82.4667 11.9223C82.4667 18.4601 89.6214 23.756 98.4819 23.8352C98.899 25.8807 98.6174 27.9629 97.666 29.8925C99.1598 29.5779 100.707 29.418 102.262 29.418C103.134 29.418 104.006 29.4683 104.874 29.5699L114.586 30.702C118.072 31.1073 121.295 32.3168 123.793 34.1542L130.727 39.2557C133.232 41.0991 134.879 43.4785 135.433 46.053L136.963 53.1587C137.368 55.0404 137.174 56.9558 136.413 58.7574C137.331 59.9927 137.961 61.342 138.264 62.7497L139.793 69.8554C140.348 72.4321 139.78 75.0718 138.17 77.3962L133.725 83.8134C132.12 86.1319 129.558 88.0171 126.407 89.199L117.655 92.4798C115.296 93.365 112.696 93.8197 110.072 93.8197C109.201 93.8197 108.328 93.7703 107.46 93.6687L97.7473 92.5375C95.0099 92.2182 92.4355 91.405 90.2472 90.1816L81.9948 93.2748C79.6357 94.16 77.036 94.6147 74.4123 94.6147C73.5411 94.6147 72.6686 94.5654 71.7999 94.4638L62.0875 93.3326C59.2616 93.003 56.6093 92.1469 54.3762 90.8566C53.4182 91.4457 52.3683 91.9573 51.2433 92.3793L42.4907 95.6601C40.1316 96.5453 37.5319 97 34.9082 97C34.037 97 33.1645 96.9506 32.2958 96.8491L22.5834 95.7179C19.096 95.3111 15.8731 94.1027 13.3761 92.2657L6.44192 87.1642C3.93754 85.3208 2.29037 82.9414 1.73638 80.3669L0.206698 73.2603C-0.347924 70.6833 0.220351 68.0432 1.83008 65.7185L6.27477 59.3014C6.31362 59.2453 6.35303 59.1894 6.39299 59.1338C4.56965 57.4633 3.3617 55.4656 2.90305 53.3341L1.37336 46.2275C0.818743 43.6505 1.38702 41.0105 2.99675 38.6857L7.44144 32.2686C9.04673 29.9499 11.6084 28.0646 14.7593 26.883L23.512 23.6022C25.8723 22.717 28.472 22.2623 31.0958 22.2623C31.967 22.2623 32.8395 22.3126 33.7069 22.4142L33.8421 22.4299C33.7508 20.3542 34.3719 18.2859 35.6634 16.4206L40.1082 10.0029C41.7131 7.68385 44.2749 5.79831 47.4263 4.61667L56.1804 1.33516C58.537 0.451889 61.133 0 63.7517 0C64.5926 0 65.4372 0.0465851 66.2755 0.140686C66.3844 6.659 73.5809 11.9223 82.4667 11.9223Z" transform="translate(586 573)" fill="black" fill-opacity="0.24"/>
<ellipse cx="24.0243" cy="29.4175" rx="24.0243" ry="29.4175" transform="translate(47.0452 401.047) rotate(37.0422)" fill="#E29B47"/>
<path d="M33.6877 38.439C32.4197 38.439 31.3909 39.6976 31.3909 41.2516C31.3909 42.8044 32.4197 44.0642 33.6877 44.0642C34.9557 44.0642 35.9845 42.8044 35.9845 41.2516C35.9845 39.6976 34.9557 38.439 33.6877 38.439ZM32.9221 15.0006C32.9221 13.4466 31.8933 12.188 30.6253 12.188C29.3572 12.188 28.3285 13.4466 28.3285 15.0006C28.3285 16.5534 29.3572 17.8132 30.6253 17.8132C31.8933 17.8132 32.9221 16.5534 32.9221 15.0006ZM17.61 22.5009C17.61 20.9469 16.5813 19.6883 15.3132 19.6883C14.0452 19.6883 13.0164 20.9469 13.0164 22.5009C13.0164 24.0537 14.0452 25.3135 15.3132 25.3135C16.5813 25.3135 17.61 24.0537 17.61 22.5009ZM18.3756 38.439C17.1076 38.439 16.0788 39.6976 16.0788 41.2516C16.0788 42.8044 17.1076 44.0642 18.3756 44.0642C19.6437 44.0642 20.6724 42.8044 20.6724 41.2516C20.6724 39.6976 19.6437 38.439 18.3756 38.439ZM27.5629 27.1886C26.2948 27.1886 25.2661 28.4472 25.2661 30.0012C25.2661 31.554 26.2948 32.8138 27.5629 32.8138C28.8309 32.8138 29.8597 31.554 29.8597 30.0012C29.8597 28.4472 28.8309 27.1886 27.5629 27.1886ZM48.8437 29.8594L47.6877 20.9223C47.269 17.6843 46.0242 14.6917 44.1315 12.3731L38.8909 5.95687C37.0027 3.64585 34.5672 2.12469 31.9325 1.61491L24.5923 0.191023C23.9368 0.0632837 23.2774 0 22.619 0C20.6361 0 18.6714 0.571897 16.8875 1.68522L10.2727 5.81156C7.89137 7.29771 5.95537 9.66889 4.74217 12.5853L1.38309 20.6563C0.166531 23.5802 -0.262945 26.9006 0.156212 30.1418L1.31227 39.08C1.73095 42.318 2.97581 45.3107 4.8685 47.6292L10.109 54.0455C11.9961 56.3559 14.4319 57.8758 17.0674 58.3874L24.4076 59.8101C25.0641 59.9379 25.7235 60 26.3819 60C28.3648 60 30.3296 59.4281 32.1125 58.3148L38.7273 54.1884C41.1084 52.7019 43.0443 50.3309 44.2578 47.4147L47.6169 39.3437C48.8335 36.4203 49.263 33.1002 48.8437 29.8594V29.8594ZM44.8885 37.6421L41.5294 45.7143C40.603 47.9409 39.1531 49.7164 37.3377 50.8496L30.7229 54.976C29.385 55.8116 27.8835 56.2522 26.3819 56.2522C25.8833 56.2522 25.3799 56.2041 24.8861 56.108L17.5469 54.6853C15.5381 54.2951 13.715 53.1572 12.2747 51.3946L7.03515 44.9771C5.59103 43.2087 4.65796 40.9668 4.33832 38.4929L3.18226 29.5558C2.86166 27.0807 3.18417 24.5916 4.11246 22.3602L7.47154 14.2881C8.39792 12.0614 9.84778 10.2859 11.6632 9.1527L18.278 5.02637C19.6169 4.19196 21.1175 3.75015 22.619 3.75015C23.1176 3.75015 23.621 3.7982 24.1138 3.89429L31.454 5.31818C33.4628 5.70725 35.2859 6.84519 36.7252 8.60893L41.9658 15.0252C43.4099 16.7936 44.343 19.0355 44.6626 21.5094L45.8187 30.4465C46.1393 32.9216 45.8167 35.4108 44.8885 37.6421V37.6421Z" transform="translate(47.0164 400.295) rotate(37.0422)" fill="#A5530C"/>
<ellipse cx="27.2473" cy="25.6632" rx="27.2473" ry="25.6632" transform="translate(288.112 53.7823) rotate(95.0579)" fill="#E29B47"/>
<path d="M38.2072 33.5334C36.769 33.5334 35.6022 34.6314 35.6022 35.9871C35.6022 37.3417 36.769 38.4407 38.2072 38.4407C39.6453 38.4407 40.8121 37.3417 40.8121 35.9871C40.8121 34.6314 39.6453 33.5334 38.2072 33.5334ZM37.3389 13.0862C37.3389 11.7306 36.1721 10.6325 34.7339 10.6325C33.2958 10.6325 32.129 11.7306 32.129 13.0862C32.129 14.4408 33.2958 15.5399 34.7339 15.5399C36.1721 15.5399 37.3389 14.4408 37.3389 13.0862ZM19.9726 19.6293C19.9726 18.2737 18.8058 17.1756 17.3676 17.1756C15.9295 17.1756 14.7627 18.2737 14.7627 19.6293C14.7627 20.9839 15.9295 22.083 17.3676 22.083C18.8058 22.083 19.9726 20.9839 19.9726 19.6293ZM20.8409 33.5334C19.4027 33.5334 18.2359 34.6314 18.2359 35.9871C18.2359 37.3417 19.4027 38.4407 20.8409 38.4407C22.279 38.4407 23.4458 37.3417 23.4458 35.9871C23.4458 34.6314 22.279 33.5334 20.8409 33.5334ZM31.2607 23.7188C29.8225 23.7188 28.6557 24.8168 28.6557 26.1724C28.6557 27.527 29.8225 28.6261 31.2607 28.6261C32.6988 28.6261 33.8656 27.527 33.8656 26.1724C33.8656 24.8168 32.6988 23.7188 31.2607 23.7188ZM55.3966 26.0487L54.0854 18.2522C53.6106 15.4274 52.1987 12.8167 50.0521 10.7941L44.1085 5.19666C41.967 3.18056 39.2047 1.85354 36.2166 1.40881L27.8916 0.166645C27.1481 0.0552074 26.4003 0 25.6535 0C23.4046 0 21.1763 0.498912 19.1531 1.47015L11.6509 5.06988C8.95006 6.36638 6.75433 8.43495 5.37837 10.9791L1.56864 18.0201C0.188872 20.5709 -0.298221 23.4676 0.17717 26.2951L1.48832 34.0926C1.96317 36.9174 3.37504 39.5281 5.52165 41.5508L11.4653 47.1482C13.6055 49.1638 16.368 50.4897 19.3572 50.936L27.6821 52.1772C28.4267 52.2886 29.1745 52.3428 29.9213 52.3428C32.1702 52.3428 34.3985 51.8439 36.4206 50.8726L43.9229 47.2729C46.6234 45.9761 48.8191 43.9076 50.1954 41.3637L54.0051 34.3227C55.3849 31.7723 55.872 28.8759 55.3966 26.0487V26.0487ZM50.9106 32.8382L47.1009 39.8802C46.0502 41.8227 44.4059 43.3716 42.3469 44.3602L34.8446 47.9599C33.3273 48.6889 31.6243 49.0733 29.9213 49.0733C29.3558 49.0733 28.7849 49.0314 28.2248 48.9475L19.9009 47.7064C17.6227 47.3659 15.555 46.3732 13.9215 44.8356L7.97898 39.2372C6.34112 37.6944 5.28286 35.7386 4.92034 33.5804L3.60918 25.7839C3.24558 23.6247 3.61135 21.4532 4.66419 19.5066L8.47392 12.4646C9.52458 10.5221 11.1689 8.97325 13.2279 7.98463L20.7302 4.3849C22.2486 3.65698 23.9505 3.27155 25.6535 3.27155C26.219 3.27155 26.7899 3.31347 27.3489 3.3973L35.6739 4.63947C37.9521 4.97889 40.0198 5.9716 41.6522 7.51026L47.5958 13.1077C49.2337 14.6504 50.2919 16.6062 50.6545 18.7644L51.9656 26.5609C52.3292 28.7201 51.9635 30.8916 50.9106 32.8382V32.8382Z" transform="translate(288.666 53.2897) rotate(95.0579)" fill="#A5530C"/>
<path fill-rule="evenodd" clip-rule="evenodd" d="M25.4073 0L26.8906 5.76479L32.2686 13.0229L39.4395 16.41L40.3358 21.7325L46.1621 28.0229L53.654 31.8293C52.3318 46.5303 40.8541 58.0211 26.8905 58.0211C12.0393 58.0211 0 45.0229 0 28.9888C0 13.4921 11.246 0.831131 25.4073 0Z" transform="translate(58.8964 841.009)" fill="#E29B47"/>
<path d="M38.207 38.4368C36.7688 38.4368 35.602 39.6953 35.602 41.2492C35.602 42.8019 36.7688 44.0616 38.207 44.0616C39.6452 44.0616 40.812 42.8019 40.812 41.2492C40.812 39.6953 39.6452 38.4368 38.207 38.4368ZM19.9719 22.4996C19.9719 20.9457 18.8051 19.6871 17.3669 19.6871C15.9287 19.6871 14.7619 20.9457 14.7619 22.4996C14.7619 24.0523 15.9287 25.312 17.3669 25.312C18.8051 25.312 19.9719 24.0523 19.9719 22.4996ZM20.8403 38.4368C19.4021 38.4368 18.2353 39.6953 18.2353 41.2492C18.2353 42.8019 19.4021 44.0616 20.8403 44.0616C22.2784 44.0616 23.4453 42.8019 23.4453 41.2492C23.4453 39.6953 22.2784 38.4368 20.8403 38.4368ZM31.2603 27.187C29.8221 27.187 28.6553 28.4455 28.6553 29.9994C28.6553 31.5521 29.8221 32.8119 31.2603 32.8119C32.6985 32.8119 33.8653 31.5521 33.8653 29.9994C33.8653 28.4455 32.6985 27.187 31.2603 27.187ZM55.4131 29.9783C47.8184 29.8787 41.6858 23.2179 41.6858 14.995C34.0694 14.995 27.9009 8.37523 27.8076 0.17695C27.089 0.0585926 26.365 0 25.6443 0C23.3997 0 21.1746 0.568348 19.1546 1.67926L11.6511 5.80653C8.94994 7.29271 6.75409 9.66424 5.37846 12.581L1.56863 20.6527C0.188908 23.5769 -0.298188 26.8975 0.177125 30.1389L1.48831 39.0778C1.9634 42.3158 3.37525 45.3086 5.52173 47.6276L11.4666 54.0447C13.6065 56.3557 16.3692 57.876 19.3587 58.3875L27.6849 59.8102C28.4295 59.9379 29.1785 60 29.9252 60C32.1742 60 34.4026 59.4281 36.4258 58.3149L43.9293 54.1876C46.6305 52.7014 48.8263 50.3299 50.202 47.4131L54.0118 39.3414C55.3751 36.4551 55.8581 33.181 55.4131 29.9783V29.9783ZM50.9172 37.6375L47.1074 45.7104C46.0567 47.937 44.4123 49.7123 42.3522 50.8455L34.8487 54.9728C33.3313 55.8071 31.6283 56.2489 29.9252 56.2489C29.3597 56.2489 28.7888 56.2009 28.2287 56.1048L19.9035 54.6821C17.6242 54.2919 15.5564 53.154 13.924 51.3916L7.97912 44.9745C6.34014 43.2062 5.28294 40.9633 4.92041 38.4907L3.60922 29.5529C3.24561 27.078 3.61139 24.589 4.66425 22.3566L8.47407 14.2849C9.52476 12.0584 11.1692 10.283 13.2293 9.14982L20.7317 5.02139C21.9615 4.34523 23.315 3.92805 24.6946 3.79563C26.1219 11.1959 31.6239 17.0317 38.5066 18.4274C39.7993 25.8593 45.2047 31.7994 52.0602 33.3392C51.9408 34.831 51.5566 36.2852 50.9172 37.6375V37.6375Z" transform="translate(58 840)" fill="#A5530C"/>
<path fill-rule="evenodd" clip-rule="evenodd" d="M25.4073 0L26.8905 5.76477L32.2686 13.0228L39.4395 16.4099L40.3358 21.7325L46.1621 28.0228L53.654 31.8293C52.3318 46.5303 40.8541 58.0211 26.8905 58.0211C12.0393 58.0211 0 45.0229 0 28.9888C0 13.4921 11.246 0.831146 25.4073 0Z" transform="translate(1183.21 605.978) rotate(-74.5801)" fill="#E29B47"/>
<path d="M38.207 38.4368C36.7688 38.4368 35.602 39.6953 35.602 41.2492C35.602 42.8019 36.7688 44.0616 38.207 44.0616C39.6452 44.0616 40.812 42.8019 40.812 41.2492C40.812 39.6953 39.6452 38.4368 38.207 38.4368ZM19.9719 22.4996C19.9719 20.9457 18.8051 19.6871 17.3669 19.6871C15.9287 19.6871 14.7619 20.9457 14.7619 22.4996C14.7619 24.0523 15.9287 25.312 17.3669 25.312C18.8051 25.312 19.9719 24.0523 19.9719 22.4996ZM20.8403 38.4368C19.4021 38.4368 18.2353 39.6953 18.2353 41.2492C18.2353 42.8019 19.4021 44.0616 20.8403 44.0616C22.2784 44.0616 23.4453 42.8019 23.4453 41.2492C23.4453 39.6953 22.2784 38.4368 20.8403 38.4368ZM31.2603 27.187C29.8221 27.187 28.6553 28.4455 28.6553 29.9994C28.6553 31.5521 29.8221 32.8119 31.2603 32.8119C32.6985 32.8119 33.8653 31.5521 33.8653 29.9994C33.8653 28.4455 32.6985 27.187 31.2603 27.187ZM55.4131 29.9783C47.8184 29.8787 41.6858 23.2179 41.6858 14.995C34.0694 14.995 27.9009 8.37523 27.8076 0.17695C27.089 0.0585926 26.365 0 25.6443 0C23.3997 0 21.1746 0.568348 19.1546 1.67926L11.6511 5.80653C8.94994 7.29271 6.75409 9.66424 5.37846 12.581L1.56863 20.6527C0.188908 23.5769 -0.298188 26.8975 0.177125 30.1389L1.48831 39.0778C1.9634 42.3158 3.37525 45.3086 5.52173 47.6276L11.4666 54.0447C13.6065 56.3557 16.3692 57.876 19.3587 58.3875L27.6849 59.8102C28.4295 59.9379 29.1785 60 29.9252 60C32.1742 60 34.4026 59.4281 36.4258 58.3149L43.9293 54.1876C46.6305 52.7014 48.8263 50.3299 50.202 47.4131L54.0118 39.3414C55.3751 36.4551 55.8581 33.181 55.4131 29.9783V29.9783ZM50.9172 37.6375L47.1074 45.7104C46.0567 47.937 44.4123 49.7123 42.3522 50.8455L34.8487 54.9728C33.3313 55.8071 31.6283 56.2489 29.9252 56.2489C29.3597 56.2489 28.7888 56.2009 28.2287 56.1048L19.9035 54.6821C17.6242 54.2919 15.5564 53.154 13.924 51.3916L7.97912 44.9745C6.34014 43.2062 5.28294 40.9633 4.92041 38.4907L3.60922 29.5529C3.24561 27.078 3.61139 24.589 4.66425 22.3566L8.47407 14.2849C9.52476 12.0584 11.1692 10.283 13.2293 9.14982L20.7317 5.02139C21.9615 4.34523 23.315 3.92805 24.6946 3.79563C26.1219 11.1959 31.6239 17.0317 38.5066 18.4274C39.7993 25.8593 45.2047 31.7994 52.0602 33.3392C51.9408 34.831 51.5566 36.2852 50.9172 37.6375V37.6375Z" transform="translate(1182 606.573) rotate(-74.5801)" fill="#A5530C"/>
<path fill-rule="evenodd" clip-rule="evenodd" d="M25.4073 0L26.8905 5.76481L32.2686 13.0228L39.4394 16.4099L40.3358 21.7325L46.1621 28.0228L53.654 31.8293C52.3318 46.5303 40.8541 58.0211 26.8905 58.0211C12.0393 58.0211 -4.26589e-06 45.0229 0 28.9888C-1.90326e-05 13.492 11.2459 0.831135 25.4073 0Z" transform="translate(1059.72 112.551) rotate(-145.668)" fill="#E29B47"/>
<path d="M38.207 38.4368C36.7688 38.4368 35.602 39.6953 35.602 41.2492C35.602 42.8019 36.7688 44.0616 38.207 44.0616C39.6452 44.0616 40.812 42.8019 40.812 41.2492C40.812 39.6953 39.6452 38.4368 38.207 38.4368ZM19.9719 22.4996C19.9719 20.9457 18.8051 19.6871 17.3669 19.6871C15.9287 19.6871 14.7619 20.9457 14.7619 22.4996C14.7619 24.0523 15.9287 25.312 17.3669 25.312C18.8051 25.312 19.9719 24.0523 19.9719 22.4996ZM20.8403 38.4368C19.4021 38.4368 18.2353 39.6953 18.2353 41.2492C18.2353 42.8019 19.4021 44.0616 20.8403 44.0616C22.2784 44.0616 23.4453 42.8019 23.4453 41.2492C23.4453 39.6953 22.2784 38.4368 20.8403 38.4368ZM31.2603 27.187C29.8221 27.187 28.6553 28.4455 28.6553 29.9994C28.6553 31.5521 29.8221 32.8119 31.2603 32.8119C32.6985 32.8119 33.8653 31.5521 33.8653 29.9994C33.8653 28.4455 32.6985 27.187 31.2603 27.187ZM55.4131 29.9783C47.8184 29.8787 41.6858 23.2179 41.6858 14.995C34.0694 14.995 27.9009 8.37523 27.8076 0.17695C27.089 0.0585926 26.365 0 25.6443 0C23.3997 0 21.1746 0.568348 19.1546 1.67926L11.6511 5.80653C8.94994 7.29271 6.75409 9.66424 5.37846 12.581L1.56863 20.6527C0.188908 23.5769 -0.298188 26.8975 0.177125 30.1389L1.48831 39.0778C1.9634 42.3158 3.37525 45.3086 5.52173 47.6276L11.4666 54.0447C13.6065 56.3557 16.3692 57.876 19.3587 58.3875L27.6849 59.8102C28.4295 59.9379 29.1785 60 29.9252 60C32.1742 60 34.4026 59.4281 36.4258 58.3149L43.9293 54.1876C46.6305 52.7014 48.8263 50.3299 50.202 47.4131L54.0118 39.3414C55.3751 36.4551 55.8581 33.181 55.4131 29.9783V29.9783ZM50.9172 37.6375L47.1074 45.7104C46.0567 47.937 44.4123 49.7123 42.3522 50.8455L34.8487 54.9728C33.3313 55.8071 31.6283 56.2489 29.9252 56.2489C29.3597 56.2489 28.7888 56.2009 28.2287 56.1048L19.9035 54.6821C17.6242 54.2919 15.5564 53.154 13.924 51.3916L7.97912 44.9745C6.34014 43.2062 5.28294 40.9633 4.92041 38.4907L3.60922 29.5529C3.24561 27.078 3.61139 24.589 4.66425 22.3566L8.47407 14.2849C9.52476 12.0584 11.1692 10.283 13.2293 9.14982L20.7317 5.02139C21.9615 4.34523 23.315 3.92805 24.6946 3.79563C26.1219 11.1959 31.6239 17.0317 38.5066 18.4274C39.7993 25.8593 45.2047 31.7994 52.0602 33.3392C51.9408 34.831 51.5566 36.2852 50.9172 37.6375V37.6375Z" transform="translate(1059.89 113.89) rotate(-145.668)" fill="#A5530C"/>
<path d="M8.29082 0C4.39812 8.61805 0.356562 17.9543 0.022773 28.5617C-0.486931 44.8857 7.69089 58.2365 11.3761 73.5048C12.9611 80.229 13.6782 87.393 13.4844 94.5685C13.2907 101.744 12.1901 108.784 10.2484 115.266C8.44417 121.148 5.91369 126.987 6.22493 133.501C6.41438 137.48 7.66382 141.092 8.6697 144.747C11.1383 153.908 12.2157 163.866 11.8145 173.813C11.4132 183.761 9.54458 193.418 6.36024 202" transform="translate(651 326)" stroke="url(#paint14_linear)" stroke-width="2" stroke-miterlimit="10"/>
<path d="M8.29079 0C4.39809 8.61805 0.356562 17.9543 0.022773 28.5617C-0.486931 44.8857 7.69089 58.2365 11.3761 73.5048C12.9618 80.2285 13.6796 87.3923 13.4866 94.5678C13.2937 101.743 12.1938 108.783 10.2529 115.266C8.44868 121.148 5.91821 126.987 6.22944 133.501C6.41889 137.48 7.66834 141.092 8.67421 144.747C11.1428 153.908 12.2202 163.866 11.819 173.813C11.4177 183.761 9.5491 193.418 6.36476 202" transform="translate(651.483 326)" stroke="#535461" stroke-width="2" stroke-miterlimit="10"/>
<path d="M195.18 97.58C195.18 151.47 151.49 230.43 97.6 230.43C43.71 230.43 0 151.48 0 97.58C0 71.7002 10.2807 46.8803 28.5805 28.5805C46.8803 10.2807 71.7002 0 97.58 0C123.46 0 148.28 10.2807 166.579 28.5805C184.879 46.8803 195.16 71.7002 195.16 97.58H195.18Z" transform="translate(557 86)" fill="#FFC021"/>
<path d="M0 123.5C9.2549 82.3333 45.9461 0 118.672 0C191.397 0 227.193 82.3333 236 123.5" transform="translate(536 524)" stroke="#535461" stroke-width="2" stroke-miterlimit="10"/>
<ellipse cx="31.7886" cy="23.3893" rx="31.7886" ry="23.3893" transform="translate(628.134 617.373)" fill="#E29B47"/>
<path d="M44.5751 30.5622C42.8972 30.5622 41.5359 31.5629 41.5359 32.7984C41.5359 34.033 42.8972 35.0347 44.5751 35.0347C46.2529 35.0347 47.6142 34.033 47.6142 32.7984C47.6142 31.5629 46.2529 30.5622 44.5751 30.5622ZM43.562 11.9267C43.562 10.6912 42.2008 9.69044 40.5229 9.69044C38.8451 9.69044 37.4838 10.6912 37.4838 11.9267C37.4838 13.1613 38.8451 14.163 40.5229 14.163C42.2008 14.163 43.562 13.1613 43.562 11.9267ZM23.3013 17.89C23.3013 16.6545 21.9401 15.6538 20.2622 15.6538C18.5844 15.6538 17.2231 16.6545 17.2231 17.89C17.2231 19.1246 18.5844 20.1263 20.2622 20.1263C21.9401 20.1263 23.3013 19.1246 23.3013 17.89ZM24.3144 30.5622C22.6365 30.5622 21.2753 31.5629 21.2753 32.7984C21.2753 34.033 22.6365 35.0347 24.3144 35.0347C25.9922 35.0347 27.3535 34.033 27.3535 32.7984C27.3535 31.5629 25.9922 30.5622 24.3144 30.5622ZM36.4708 21.6171C34.7929 21.6171 33.4317 22.6179 33.4317 23.8534C33.4317 25.088 34.7929 26.0896 36.4708 26.0896C38.1486 26.0896 39.5099 25.088 39.5099 23.8534C39.5099 22.6179 38.1486 21.6171 36.4708 21.6171ZM64.6293 23.7406L63.0996 16.6349C62.5457 14.0605 60.8985 11.6811 58.3941 9.83766L51.4599 4.7362C48.9615 2.89875 45.7388 1.6893 42.2527 1.28398L32.5402 0.151879C31.6728 0.0503157 30.8003 0 29.9291 0C27.3054 0 24.7057 0.454705 22.3453 1.33989L13.5927 4.62066C10.4417 5.80228 7.88006 7.68756 6.27477 10.0063L1.83008 16.4234C0.220351 18.7482 -0.347924 21.3882 0.206698 23.9652L1.73638 31.0718C2.29037 33.6463 3.93754 36.0257 6.44192 37.8691L13.3761 42.9706C15.8731 44.8076 19.096 46.016 22.5834 46.4228L32.2958 47.554C33.1645 47.6555 34.037 47.7049 34.9082 47.7049C37.5319 47.7049 40.1316 47.2502 42.4907 46.365L51.2433 43.0843C54.394 41.9024 56.9556 40.0172 58.5613 37.6986L63.0059 31.2815C64.6158 28.9571 65.184 26.3173 64.6293 23.7406V23.7406ZM59.3957 29.9286L54.9511 36.3466C53.7253 38.117 51.8068 39.5286 49.4047 40.4296L40.6521 43.7104C38.8818 44.3748 36.895 44.7251 34.9082 44.7251C34.2484 44.7251 33.5824 44.6869 32.929 44.6105L23.2178 43.4793C20.5598 43.169 18.1475 42.2643 16.2418 40.8629L9.30881 35.7605C7.39797 34.3545 6.16334 32.572 5.7404 30.605L4.21071 23.4993C3.78651 21.5314 4.21325 19.5523 5.44155 17.7782L9.88624 11.3602C11.112 9.58981 13.0304 8.17817 15.4326 7.27715L24.1852 3.99637C25.9568 3.33295 27.9423 2.98167 29.9291 2.98167C30.5889 2.98167 31.2549 3.01988 31.9071 3.09628L41.6195 4.22839C44.2775 4.53774 46.6898 5.44249 48.5943 6.84481L55.5285 11.9463C57.4393 13.3523 58.674 15.1348 59.0969 17.1018L60.6266 24.2075C61.0508 26.1754 60.624 28.1545 59.3957 29.9286V29.9286Z" transform="translate(627.504 616.91)" fill="#A5530C"/>
<ellipse cx="31.7886" cy="23.3893" rx="31.7886" ry="23.3893" transform="translate(588.629 619.758)" fill="#E29B47"/>
<path d="M44.5751 30.5622C42.8972 30.5622 41.5359 31.5629 41.5359 32.7984C41.5359 34.033 42.8972 35.0347 44.5751 35.0347C46.2529 35.0347 47.6142 34.033 47.6142 32.7984C47.6142 31.5629 46.2529 30.5622 44.5751 30.5622ZM43.562 11.9267C43.562 10.6912 42.2008 9.69044 40.5229 9.69044C38.8451 9.69044 37.4838 10.6912 37.4838 11.9267C37.4838 13.1613 38.8451 14.163 40.5229 14.163C42.2008 14.163 43.562 13.1613 43.562 11.9267ZM23.3013 17.89C23.3013 16.6545 21.9401 15.6538 20.2622 15.6538C18.5844 15.6538 17.2231 16.6545 17.2231 17.89C17.2231 19.1246 18.5844 20.1263 20.2622 20.1263C21.9401 20.1263 23.3013 19.1246 23.3013 17.89ZM24.3144 30.5622C22.6365 30.5622 21.2753 31.5629 21.2753 32.7984C21.2753 34.033 22.6365 35.0347 24.3144 35.0347C25.9922 35.0347 27.3535 34.033 27.3535 32.7984C27.3535 31.5629 25.9922 30.5622 24.3144 30.5622ZM36.4708 21.6171C34.7929 21.6171 33.4317 22.6179 33.4317 23.8534C33.4317 25.088 34.7929 26.0896 36.4708 26.0896C38.1486 26.0896 39.5099 25.088 39.5099 23.8534C39.5099 22.6179 38.1486 21.6171 36.4708 21.6171ZM64.6293 23.7406L63.0996 16.6349C62.5457 14.0605 60.8985 11.6811 58.3941 9.83766L51.4599 4.7362C48.9615 2.89875 45.7388 1.6893 42.2527 1.28398L32.5402 0.151879C31.6728 0.0503157 30.8003 0 29.9291 0C27.3054 0 24.7057 0.454705 22.3453 1.33989L13.5927 4.62066C10.4417 5.80228 7.88006 7.68756 6.27477 10.0063L1.83008 16.4234C0.220351 18.7482 -0.347924 21.3882 0.206698 23.9652L1.73638 31.0718C2.29037 33.6463 3.93754 36.0257 6.44192 37.8691L13.3761 42.9706C15.8731 44.8076 19.096 46.016 22.5834 46.4228L32.2958 47.554C33.1645 47.6555 34.037 47.7049 34.9082 47.7049C37.5319 47.7049 40.1316 47.2502 42.4907 46.365L51.2433 43.0843C54.394 41.9024 56.9556 40.0172 58.5613 37.6986L63.0059 31.2815C64.6158 28.9571 65.184 26.3173 64.6293 23.7406V23.7406ZM59.3957 29.9286L54.9511 36.3466C53.7253 38.117 51.8068 39.5286 49.4047 40.4296L40.6521 43.7104C38.8818 44.3748 36.895 44.7251 34.9082 44.7251C34.2484 44.7251 33.5824 44.6869 32.929 44.6105L23.2178 43.4793C20.5598 43.169 18.1475 42.2643 16.2418 40.8629L9.30881 35.7605C7.39797 34.3545 6.16334 32.572 5.7404 30.605L4.21071 23.4993C3.78651 21.5314 4.21325 19.5523 5.44155 17.7782L9.88624 11.3602C11.112 9.58981 13.0304 8.17817 15.4326 7.27715L24.1852 3.99637C25.9568 3.33295 27.9423 2.98167 29.9291 2.98167C30.5889 2.98167 31.2549 3.01988 31.9071 3.09628L41.6195 4.22839C44.2775 4.53774 46.6898 5.44249 48.5943 6.84481L55.5285 11.9463C57.4393 13.3523 58.674 15.1348 59.0969 17.1018L60.6266 24.2075C61.0508 26.1754 60.624 28.1545 59.3957 29.9286V29.9286Z" transform="translate(588 619.295)" fill="#A5530C"/>
<ellipse cx="31.7886" cy="23.3893" rx="31.7886" ry="23.3893" transform="translate(608.463 605.447)" fill="#E29B47"/>
<path d="M44.5751 30.5622C42.8972 30.5622 41.5359 31.5629 41.5359 32.7984C41.5359 34.033 42.8972 35.0347 44.5751 35.0347C46.2529 35.0347 47.6142 34.033 47.6142 32.7984C47.6142 31.5629 46.2529 30.5622 44.5751 30.5622ZM43.562 11.9267C43.562 10.6912 42.2008 9.69044 40.5229 9.69044C38.8451 9.69044 37.4838 10.6912 37.4838 11.9267C37.4838 13.1613 38.8451 14.163 40.5229 14.163C42.2008 14.163 43.562 13.1613 43.562 11.9267ZM23.3013 17.89C23.3013 16.6545 21.9401 15.6538 20.2622 15.6538C18.5844 15.6538 17.2231 16.6545 17.2231 17.89C17.2231 19.1246 18.5844 20.1263 20.2622 20.1263C21.9401 20.1263 23.3013 19.1246 23.3013 17.89ZM24.3144 30.5622C22.6365 30.5622 21.2753 31.5629 21.2753 32.7984C21.2753 34.033 22.6365 35.0347 24.3144 35.0347C25.9922 35.0347 27.3535 34.033 27.3535 32.7984C27.3535 31.5629 25.9922 30.5622 24.3144 30.5622ZM36.4708 21.6171C34.7929 21.6171 33.4317 22.6179 33.4317 23.8534C33.4317 25.088 34.7929 26.0896 36.4708 26.0896C38.1486 26.0896 39.5099 25.088 39.5099 23.8534C39.5099 22.6179 38.1486 21.6171 36.4708 21.6171ZM64.6293 23.7406L63.0996 16.6349C62.5457 14.0605 60.8985 11.6811 58.3941 9.83766L51.4599 4.7362C48.9615 2.89875 45.7388 1.6893 42.2527 1.28398L32.5402 0.151879C31.6728 0.0503157 30.8003 0 29.9291 0C27.3054 0 24.7057 0.454705 22.3453 1.33989L13.5927 4.62066C10.4417 5.80228 7.88006 7.68756 6.27477 10.0063L1.83008 16.4234C0.220351 18.7482 -0.347924 21.3882 0.206698 23.9652L1.73638 31.0718C2.29037 33.6463 3.93754 36.0257 6.44192 37.8691L13.3761 42.9706C15.8731 44.8076 19.096 46.016 22.5834 46.4228L32.2958 47.554C33.1645 47.6555 34.037 47.7049 34.9082 47.7049C37.5319 47.7049 40.1316 47.2502 42.4907 46.365L51.2433 43.0843C54.394 41.9024 56.9556 40.0172 58.5613 37.6986L63.0059 31.2815C64.6158 28.9571 65.184 26.3173 64.6293 23.7406V23.7406ZM59.3957 29.9286L54.9511 36.3466C53.7253 38.117 51.8068 39.5286 49.4047 40.4296L40.6521 43.7104C38.8818 44.3748 36.895 44.7251 34.9082 44.7251C34.2484 44.7251 33.5824 44.6869 32.929 44.6105L23.2178 43.4793C20.5598 43.169 18.1475 42.2643 16.2418 40.8629L9.30881 35.7605C7.39797 34.3545 6.16334 32.572 5.7404 30.605L4.21071 23.4993C3.78651 21.5314 4.21325 19.5523 5.44155 17.7782L9.88624 11.3602C11.112 9.58981 13.0304 8.17817 15.4326 7.27715L24.1852 3.99637C25.9568 3.33295 27.9423 2.98167 29.9291 2.98167C30.5889 2.98167 31.2549 3.01988 31.9071 3.09628L41.6195 4.22839C44.2775 4.53774 46.6898 5.44249 48.5943 6.84481L55.5285 11.9463C57.4393 13.3523 58.674 15.1348 59.0969 17.1018L60.6266 24.2075C61.0508 26.1754 60.624 28.1545 59.3957 29.9286V29.9286Z" transform="translate(607.833 604.984)" fill="#A5530C"/>
<ellipse cx="31.7886" cy="23.3893" rx="31.7886" ry="23.3893" transform="translate(589.796 592.725)" fill="#E29B47"/>
<path d="M44.5751 30.5622C42.8972 30.5622 41.5359 31.5629 41.5359 32.7984C41.5359 34.033 42.8972 35.0347 44.5751 35.0347C46.2529 35.0347 47.6142 34.033 47.6142 32.7984C47.6142 31.5629 46.2529 30.5622 44.5751 30.5622ZM43.562 11.9267C43.562 10.6912 42.2008 9.69044 40.5229 9.69044C38.8451 9.69044 37.4838 10.6912 37.4838 11.9267C37.4838 13.1613 38.8451 14.163 40.5229 14.163C42.2008 14.163 43.562 13.1613 43.562 11.9267ZM23.3013 17.89C23.3013 16.6545 21.9401 15.6538 20.2622 15.6538C18.5844 15.6538 17.2231 16.6545 17.2231 17.89C17.2231 19.1246 18.5844 20.1263 20.2622 20.1263C21.9401 20.1263 23.3013 19.1246 23.3013 17.89ZM24.3144 30.5622C22.6365 30.5622 21.2753 31.5629 21.2753 32.7984C21.2753 34.033 22.6365 35.0347 24.3144 35.0347C25.9922 35.0347 27.3535 34.033 27.3535 32.7984C27.3535 31.5629 25.9922 30.5622 24.3144 30.5622ZM36.4708 21.6171C34.7929 21.6171 33.4317 22.6179 33.4317 23.8534C33.4317 25.088 34.7929 26.0896 36.4708 26.0896C38.1486 26.0896 39.5099 25.088 39.5099 23.8534C39.5099 22.6179 38.1486 21.6171 36.4708 21.6171ZM64.6293 23.7406L63.0996 16.6349C62.5457 14.0605 60.8985 11.6811 58.3941 9.83766L51.4599 4.7362C48.9615 2.89875 45.7388 1.6893 42.2527 1.28398L32.5402 0.151879C31.6728 0.0503157 30.8003 0 29.9291 0C27.3054 0 24.7057 0.454705 22.3453 1.33989L13.5927 4.62066C10.4417 5.80228 7.88006 7.68756 6.27477 10.0063L1.83008 16.4234C0.220351 18.7482 -0.347924 21.3882 0.206698 23.9652L1.73638 31.0718C2.29037 33.6463 3.93754 36.0257 6.44192 37.8691L13.3761 42.9706C15.8731 44.8076 19.096 46.016 22.5834 46.4228L32.2958 47.554C33.1645 47.6555 34.037 47.7049 34.9082 47.7049C37.5319 47.7049 40.1316 47.2502 42.4907 46.365L51.2433 43.0843C54.394 41.9024 56.9556 40.0172 58.5613 37.6986L63.0059 31.2815C64.6158 28.9571 65.184 26.3173 64.6293 23.7406V23.7406ZM59.3957 29.9286L54.9511 36.3466C53.7253 38.117 51.8068 39.5286 49.4047 40.4296L40.6521 43.7104C38.8818 44.3748 36.895 44.7251 34.9082 44.7251C34.2484 44.7251 33.5824 44.6869 32.929 44.6105L23.2178 43.4793C20.5598 43.169 18.1475 42.2643 16.2418 40.8629L9.30881 35.7605C7.39797 34.3545 6.16334 32.572 5.7404 30.605L4.21071 23.4993C3.78651 21.5314 4.21325 19.5523 5.44155 17.7782L9.88624 11.3602C11.112 9.58981 13.0304 8.17817 15.4326 7.27715L24.1852 3.99637C25.9568 3.33295 27.9423 2.98167 29.9291 2.98167C30.5889 2.98167 31.2549 3.01988 31.9071 3.09628L41.6195 4.22839C44.2775 4.53774 46.6898 5.44249 48.5943 6.84481L55.5285 11.9463C57.4393 13.3523 58.674 15.1348 59.0969 17.1018L60.6266 24.2075C61.0508 26.1754 60.624 28.1545 59.3957 29.9286V29.9286Z" transform="translate(589.167 592.262)" fill="#A5530C"/>
<ellipse cx="31.7886" cy="23.3893" rx="31.7886" ry="23.3893" transform="translate(660.963 599.881)" fill="#E29B47"/>
<path d="M44.5751 30.5622C42.8972 30.5622 41.5359 31.5629 41.5359 32.7984C41.5359 34.033 42.8972 35.0347 44.5751 35.0347C46.2529 35.0347 47.6142 34.033 47.6142 32.7984C47.6142 31.5629 46.2529 30.5622 44.5751 30.5622ZM43.562 11.9267C43.562 10.6912 42.2008 9.69044 40.5229 9.69044C38.8451 9.69044 37.4838 10.6912 37.4838 11.9267C37.4838 13.1613 38.8451 14.163 40.5229 14.163C42.2008 14.163 43.562 13.1613 43.562 11.9267ZM23.3013 17.89C23.3013 16.6545 21.9401 15.6538 20.2622 15.6538C18.5844 15.6538 17.2231 16.6545 17.2231 17.89C17.2231 19.1246 18.5844 20.1263 20.2622 20.1263C21.9401 20.1263 23.3013 19.1246 23.3013 17.89ZM24.3144 30.5622C22.6365 30.5622 21.2753 31.5629 21.2753 32.7984C21.2753 34.033 22.6365 35.0347 24.3144 35.0347C25.9922 35.0347 27.3535 34.033 27.3535 32.7984C27.3535 31.5629 25.9922 30.5622 24.3144 30.5622ZM36.4708 21.6171C34.7929 21.6171 33.4317 22.6179 33.4317 23.8534C33.4317 25.088 34.7929 26.0896 36.4708 26.0896C38.1486 26.0896 39.5099 25.088 39.5099 23.8534C39.5099 22.6179 38.1486 21.6171 36.4708 21.6171ZM64.6293 23.7406L63.0996 16.6349C62.5457 14.0605 60.8985 11.6811 58.3941 9.83766L51.4599 4.7362C48.9615 2.89875 45.7388 1.6893 42.2527 1.28398L32.5402 0.151879C31.6728 0.0503157 30.8003 0 29.9291 0C27.3054 0 24.7057 0.454705 22.3453 1.33989L13.5927 4.62066C10.4417 5.80228 7.88006 7.68756 6.27477 10.0063L1.83008 16.4234C0.220351 18.7482 -0.347924 21.3882 0.206698 23.9652L1.73638 31.0718C2.29037 33.6463 3.93754 36.0257 6.44192 37.8691L13.3761 42.9706C15.8731 44.8076 19.096 46.016 22.5834 46.4228L32.2958 47.554C33.1645 47.6555 34.037 47.7049 34.9082 47.7049C37.5319 47.7049 40.1316 47.2502 42.4907 46.365L51.2433 43.0843C54.394 41.9024 56.9556 40.0172 58.5613 37.6986L63.0059 31.2815C64.6158 28.9571 65.184 26.3173 64.6293 23.7406V23.7406ZM59.3957 29.9286L54.9511 36.3466C53.7253 38.117 51.8068 39.5286 49.4047 40.4296L40.6521 43.7104C38.8818 44.3748 36.895 44.7251 34.9082 44.7251C34.2484 44.7251 33.5824 44.6869 32.929 44.6105L23.2178 43.4793C20.5598 43.169 18.1475 42.2643 16.2418 40.8629L9.30881 35.7605C7.39797 34.3545 6.16334 32.572 5.7404 30.605L4.21071 23.4993C3.78651 21.5314 4.21325 19.5523 5.44155 17.7782L9.88624 11.3602C11.112 9.58981 13.0304 8.17817 15.4326 7.27715L24.1852 3.99637C25.9568 3.33295 27.9423 2.98167 29.9291 2.98167C30.5889 2.98167 31.2549 3.01988 31.9071 3.09628L41.6195 4.22839C44.2775 4.53774 46.6898 5.44249 48.5943 6.84481L55.5285 11.9463C57.4393 13.3523 58.674 15.1348 59.0969 17.1018L60.6266 24.2075C61.0508 26.1754 60.624 28.1545 59.3957 29.9286V29.9286Z" transform="translate(660.333 599.418)" fill="#A5530C"/>
<ellipse cx="31.7886" cy="23.3893" rx="31.7886" ry="23.3893" transform="translate(649.296 600.676)" fill="#E29B47"/>
<path d="M44.5751 30.5622C42.8972 30.5622 41.5359 31.5629 41.5359 32.7984C41.5359 34.033 42.8972 35.0347 44.5751 35.0347C46.2529 35.0347 47.6142 34.033 47.6142 32.7984C47.6142 31.5629 46.2529 30.5622 44.5751 30.5622ZM43.562 11.9267C43.562 10.6912 42.2008 9.69044 40.5229 9.69044C38.8451 9.69044 37.4838 10.6912 37.4838 11.9267C37.4838 13.1613 38.8451 14.163 40.5229 14.163C42.2008 14.163 43.562 13.1613 43.562 11.9267ZM23.3013 17.89C23.3013 16.6545 21.9401 15.6538 20.2622 15.6538C18.5844 15.6538 17.2231 16.6545 17.2231 17.89C17.2231 19.1246 18.5844 20.1263 20.2622 20.1263C21.9401 20.1263 23.3013 19.1246 23.3013 17.89ZM24.3144 30.5622C22.6365 30.5622 21.2753 31.5629 21.2753 32.7984C21.2753 34.033 22.6365 35.0347 24.3144 35.0347C25.9922 35.0347 27.3535 34.033 27.3535 32.7984C27.3535 31.5629 25.9922 30.5622 24.3144 30.5622ZM36.4708 21.6171C34.7929 21.6171 33.4317 22.6179 33.4317 23.8534C33.4317 25.088 34.7929 26.0896 36.4708 26.0896C38.1486 26.0896 39.5099 25.088 39.5099 23.8534C39.5099 22.6179 38.1486 21.6171 36.4708 21.6171ZM64.6293 23.7406L63.0996 16.6349C62.5457 14.0605 60.8985 11.6811 58.3941 9.83766L51.4599 4.7362C48.9615 2.89875 45.7388 1.6893 42.2527 1.28398L32.5402 0.151879C31.6728 0.0503157 30.8003 0 29.9291 0C27.3054 0 24.7057 0.454705 22.3453 1.33989L13.5927 4.62066C10.4417 5.80228 7.88006 7.68756 6.27477 10.0063L1.83008 16.4234C0.220351 18.7482 -0.347924 21.3882 0.206698 23.9652L1.73638 31.0718C2.29037 33.6463 3.93754 36.0257 6.44192 37.8691L13.3761 42.9706C15.8731 44.8076 19.096 46.016 22.5834 46.4228L32.2958 47.554C33.1645 47.6555 34.037 47.7049 34.9082 47.7049C37.5319 47.7049 40.1316 47.2502 42.4907 46.365L51.2433 43.0843C54.394 41.9024 56.9556 40.0172 58.5613 37.6986L63.0059 31.2815C64.6158 28.9571 65.184 26.3173 64.6293 23.7406V23.7406ZM59.3957 29.9286L54.9511 36.3466C53.7253 38.117 51.8068 39.5286 49.4047 40.4296L40.6521 43.7104C38.8818 44.3748 36.895 44.7251 34.9082 44.7251C34.2484 44.7251 33.5824 44.6869 32.929 44.6105L23.2178 43.4793C20.5598 43.169 18.1475 42.2643 16.2418 40.8629L9.30881 35.7605C7.39797 34.3545 6.16334 32.572 5.7404 30.605L4.21071 23.4993C3.78651 21.5314 4.21325 19.5523 5.44155 17.7782L9.88624 11.3602C11.112 9.58981 13.0304 8.17817 15.4326 7.27715L24.1852 3.99637C25.9568 3.33295 27.9423 2.98167 29.9291 2.98167C30.5889 2.98167 31.2549 3.01988 31.9071 3.09628L41.6195 4.22839C44.2775 4.53774 46.6898 5.44249 48.5943 6.84481L55.5285 11.9463C57.4393 13.3523 58.674 15.1348 59.0969 17.1018L60.6266 24.2075C61.0508 26.1754 60.624 28.1545 59.3957 29.9286V29.9286Z" transform="translate(648.667 600.213)" fill="#A5530C"/>
<ellipse cx="31.7886" cy="23.3893" rx="31.7886" ry="23.3893" transform="translate(663.793 616.578)" fill="#E29B47"/>
<path d="M44.5751 30.5622C42.8972 30.5622 41.5359 31.5629 41.5359 32.7984C41.5359 34.033 42.8972 35.0347 44.5751 35.0347C46.2529 35.0347 47.6142 34.033 47.6142 32.7984C47.6142 31.5629 46.2529 30.5622 44.5751 30.5622ZM43.562 11.9267C43.562 10.6912 42.2008 9.69044 40.5229 9.69044C38.8451 9.69044 37.4838 10.6912 37.4838 11.9267C37.4838 13.1613 38.8451 14.163 40.5229 14.163C42.2008 14.163 43.562 13.1613 43.562 11.9267ZM23.3013 17.89C23.3013 16.6545 21.9401 15.6538 20.2622 15.6538C18.5844 15.6538 17.2231 16.6545 17.2231 17.89C17.2231 19.1246 18.5844 20.1263 20.2622 20.1263C21.9401 20.1263 23.3013 19.1246 23.3013 17.89ZM24.3144 30.5622C22.6365 30.5622 21.2753 31.5629 21.2753 32.7984C21.2753 34.033 22.6365 35.0347 24.3144 35.0347C25.9922 35.0347 27.3535 34.033 27.3535 32.7984C27.3535 31.5629 25.9922 30.5622 24.3144 30.5622ZM36.4708 21.6171C34.7929 21.6171 33.4317 22.6179 33.4317 23.8534C33.4317 25.088 34.7929 26.0896 36.4708 26.0896C38.1486 26.0896 39.5099 25.088 39.5099 23.8534C39.5099 22.6179 38.1486 21.6171 36.4708 21.6171ZM64.6293 23.7406L63.0996 16.6349C62.5457 14.0605 60.8985 11.6811 58.3941 9.83766L51.4599 4.7362C48.9615 2.89875 45.7388 1.6893 42.2527 1.28398L32.5402 0.151879C31.6728 0.0503157 30.8003 0 29.9291 0C27.3054 0 24.7057 0.454705 22.3453 1.33989L13.5927 4.62066C10.4417 5.80228 7.88006 7.68756 6.27477 10.0063L1.83008 16.4234C0.220351 18.7482 -0.347924 21.3882 0.206698 23.9652L1.73638 31.0718C2.29037 33.6463 3.93754 36.0257 6.44192 37.8691L13.3761 42.9706C15.8731 44.8076 19.096 46.016 22.5834 46.4228L32.2958 47.554C33.1645 47.6555 34.037 47.7049 34.9082 47.7049C37.5319 47.7049 40.1316 47.2502 42.4907 46.365L51.2433 43.0843C54.394 41.9024 56.9556 40.0172 58.5613 37.6986L63.0059 31.2815C64.6158 28.9571 65.184 26.3173 64.6293 23.7406V23.7406ZM59.3957 29.9286L54.9511 36.3466C53.7253 38.117 51.8068 39.5286 49.4047 40.4296L40.6521 43.7104C38.8818 44.3748 36.895 44.7251 34.9082 44.7251C34.2484 44.7251 33.5824 44.6869 32.929 44.6105L23.2178 43.4793C20.5598 43.169 18.1475 42.2643 16.2418 40.8629L9.30881 35.7605C7.39797 34.3545 6.16334 32.572 5.7404 30.605L4.21071 23.4993C3.78651 21.5314 4.21325 19.5523 5.44155 17.7782L9.88624 11.3602C11.112 9.58981 13.0304 8.17817 15.4326 7.27715L24.1852 3.99637C25.9568 3.33295 27.9423 2.98167 29.9291 2.98167C30.5889 2.98167 31.2549 3.01988 31.9071 3.09628L41.6195 4.22839C44.2775 4.53774 46.6898 5.44249 48.5943 6.84481L55.5285 11.9463C57.4393 13.3523 58.674 15.1348 59.0969 17.1018L60.6266 24.2075C61.0508 26.1754 60.624 28.1545 59.3957 29.9286V29.9286Z" transform="translate(663.164 616.115)" fill="#A5530C"/>
<path fill-rule="evenodd" clip-rule="evenodd" d="M29.642 0L31.3723 4.58307L37.6468 10.3538L46.0127 13.0468L47.0584 17.2787L53.8558 22.28L62.5964 25.3065C61.0541 36.9952 47.6633 46.1315 31.3723 46.1315C14.0459 46.1315 0 35.7969 0 23.0485C0 10.7273 13.1203 0.660767 29.642 0Z" transform="translate(622.879 570.803)" fill="#E29B47"/>
<path d="M44.5748 30.5604C42.8969 30.5604 41.5356 31.561 41.5356 32.7965C41.5356 34.031 42.8969 35.0326 44.5748 35.0326C46.2527 35.0326 47.614 34.031 47.614 32.7965C47.614 31.561 46.2527 30.5604 44.5748 30.5604ZM23.3006 17.889C23.3006 16.6535 21.9393 15.6529 20.2614 15.6529C18.5835 15.6529 17.2222 16.6535 17.2222 17.889C17.2222 19.1235 18.5835 20.1251 20.2614 20.1251C21.9393 20.1251 23.3006 19.1235 23.3006 17.889ZM24.3136 30.5604C22.6358 30.5604 21.2745 31.561 21.2745 32.7965C21.2745 34.031 22.6358 35.0326 24.3136 35.0326C25.9915 35.0326 27.3528 34.031 27.3528 32.7965C27.3528 31.561 25.9915 30.5604 24.3136 30.5604ZM36.4703 21.6159C34.7925 21.6159 33.4312 22.6165 33.4312 23.852C33.4312 25.0865 34.7925 26.0881 36.4703 26.0881C38.1482 26.0881 39.5095 25.0865 39.5095 23.852C39.5095 22.6165 38.1482 21.6159 36.4703 21.6159ZM64.6486 23.8352C55.7881 23.756 48.6334 18.4601 48.6334 11.9223C39.7476 11.9223 32.5511 6.65899 32.4422 0.140689C31.6039 0.0465859 30.7592 0 29.9184 0C27.2996 0 24.7037 0.451884 22.347 1.33515L13.593 4.61667C10.4416 5.7983 7.87977 7.68386 6.27487 10.0029L1.83007 16.4206C0.220392 18.7456 -0.347886 21.3857 0.206646 23.9629L1.73636 31.07C2.29063 33.6445 3.93779 36.024 6.44202 37.8678L13.3777 42.9699C15.8742 44.8074 19.0974 46.0162 22.5851 46.4229L32.2991 47.554C33.1678 47.6555 34.0415 47.7049 34.9128 47.7049C37.5366 47.7049 40.1364 47.2502 42.4968 46.3651L51.2509 43.0836C54.4022 41.902 56.9641 40.0164 58.569 37.6973L63.0138 31.2797C64.6043 28.9848 65.1678 26.3816 64.6486 23.8352V23.8352ZM59.4035 29.9249L54.9587 36.3435C53.7329 38.1138 51.8144 39.5254 49.4109 40.4263L40.6568 43.7078C38.8865 44.3712 36.8996 44.7225 34.9128 44.7225C34.253 44.7225 33.5869 44.6843 32.9335 44.6079L23.2208 43.4768C20.5615 43.1665 18.1492 42.2618 16.2446 40.8605L9.30898 35.7584C7.39683 34.3525 6.16343 32.5692 5.74048 30.6032L4.21076 23.497C3.78654 21.5292 4.21329 19.5502 5.44163 17.7753L9.88642 11.3576C11.1122 9.58738 13.0307 8.17583 15.4342 7.27486L24.187 3.99241C25.6218 3.45481 27.2009 3.12312 28.8104 3.01784C30.4756 8.90164 36.8946 13.5416 44.9243 14.6513C46.4325 20.5602 52.7388 25.2831 60.7369 26.5074C60.5976 27.6935 60.1493 28.8497 59.4035 29.9249V29.9249Z" transform="translate(621.833 570)" fill="#A5530C"/>
<path d="M7.27923 10.0788C11.7695 9.41362 13.9718 0 5.80975 0C-3.20307 0 -0.558008 9.98107 5.80975 9.98107C6.31834 10.1224 6.81121 10.1481 7.27923 10.0788ZM7.27923 10.0788C13.9409 19.1832 15.2797 20.7939 15.1165 20.4612" transform="translate(650 521.499)" stroke="#535461" stroke-width="2" stroke-miterlimit="10"/>
<path d="M7.27923 10.0788C11.7695 9.41362 13.9718 0 5.80975 0C-3.20307 0 -0.558008 9.98107 5.80975 9.98107C6.31834 10.1224 6.81121 10.1481 7.27923 10.0788ZM7.27923 10.0788C13.9409 19.1832 15.2797 20.7939 15.1165 20.4612" transform="translate(668 521) scale(-1 1)" stroke="#535461" stroke-width="2" stroke-miterlimit="10"/>
<path d="M7.27923 10.0788C11.7695 9.41362 13.9718 0 5.80975 0C-3.20307 0 -0.558008 9.98107 5.80975 9.98107C6.31834 10.1224 6.81121 10.1481 7.27923 10.0788ZM7.27923 10.0788C13.9409 19.1832 15.2797 20.7939 15.1165 20.4612" transform="translate(649 521.499)" stroke="#535461" stroke-opacity="0.22" stroke-width="2" stroke-miterlimit="10"/>
<path d="M7.27923 10.0788C11.7695 9.41362 13.9718 0 5.80975 0C-3.20307 0 -0.558008 9.98107 5.80975 9.98107C6.31834 10.1224 6.81121 10.1481 7.27923 10.0788ZM7.27923 10.0788C13.9409 19.1832 15.2797 20.7939 15.1165 20.4612" transform="translate(667 521) scale(-1 1)" stroke="#535461" stroke-opacity="0.22" stroke-width="2" stroke-miterlimit="10"/>
<path d="M0 0H586.52" transform="translate(383.932 849.52)" stroke="#6D6E70" stroke-width="3" stroke-miterlimit="10"/>
<path d="M51.1223 87.9C50.6372 90.9875 49.6223 93.9681 48.1223 96.71C47.0985 98.5643 45.4924 100.03 43.5523 100.88C41.736 101.57 39.8051 101.91 37.8623 101.88C35.6053 101.929 33.3726 101.406 31.3723 100.36C29.499 99.3467 27.949 97.37 26.7223 94.43C25.2552 90.4467 24.34 86.2814 24.0023 82.05C23.3408 75.0703 23.0471 68.0606 23.1223 61.05C23.1223 52.93 23.3356 46.0667 23.7623 40.46C24.0165 35.8526 24.7675 31.2861 26.0023 26.84C27.069 23.3667 28.539 20.8567 30.4123 19.31C32.4268 17.7234 34.9398 16.9047 37.5023 17C42.7356 17 46.3423 18.8967 48.3223 22.69C50.3023 26.4833 51.3023 32.5467 51.3223 40.88H74.3623C74.3421 36.4062 74.0482 31.9379 73.4823 27.5C72.9158 22.8165 71.4163 18.2941 69.0723 14.2C66.5237 9.8851 62.8353 6.35593 58.4123 4C53.659 1.33333 47.169 0 38.9423 0C30.3156 0 23.4256 1.47 18.2723 4.41C13.2323 7.25813 9.13697 11.5203 6.4923 16.67C3.57844 22.565 1.7847 28.95 1.2023 35.5C0.367518 43.4723 -0.033074 51.4842 0.002298 59.5C-0.034301 67.5159 0.366294 75.5278 1.2023 83.5C1.79192 90.0232 3.58554 96.3806 6.4923 102.25C9.10253 107.358 13.2132 111.546 18.2723 114.25C23.399 117.023 30.289 118.413 38.9423 118.42C46.529 118.42 52.699 117.243 57.4523 114.89C61.9858 112.736 65.8194 109.346 68.5123 105.11C71.2399 100.649 73.0645 95.6948 73.8823 90.53C74.8654 84.7053 75.3472 78.807 75.3223 72.9H52.2423C52.3376 77.924 51.9627 82.9459 51.1223 87.9V87.9Z" transform="translate(299 697)" fill="#9A1245"/>
<path d="M60.8967 11.2186C58.3513 7.39079 54.7239 4.4074 50.4767 2.64865C46.0967 0.781983 40.5934 -0.098018 33.9667 0.00864864C27.66 0.00864864 22.3434 1.00865 18.0167 3.00865C13.8006 4.89222 10.1725 7.8811 7.5167 11.6587C4.65491 15.9301 2.69805 20.7422 1.7667 25.7986C0.519188 32.2389 -0.0705041 38.7892 0.00670596 45.3487C-0.0655239 51.9803 0.470047 58.6047 1.6067 65.1386C2.42813 70.2196 4.2867 75.0771 7.0667 79.4087C9.60915 83.1831 13.2451 86.0897 17.4867 87.7387C21.8667 89.4987 27.37 90.3253 33.9967 90.2187C39.4408 90.3733 44.8616 89.4489 49.9467 87.4986C54.1803 85.7595 57.825 82.8403 60.4467 79.0887C63.3198 74.8065 65.2837 69.9803 66.2167 64.9087C67.4633 58.4683 68.053 51.9181 67.9767 45.3586C68.0538 38.7003 67.5182 32.0489 66.3767 25.4886C65.528 20.4119 63.6642 15.5585 60.8967 11.2186ZM43.2667 68.5987C41.5534 73.2987 38.4567 75.6487 33.9767 75.6487C31.6295 75.7676 29.3289 74.9636 27.5667 73.4087C25.8271 71.6848 24.5807 69.5268 23.9567 67.1587C23.0796 64.0216 22.5695 60.7933 22.4367 57.5386C22.2234 53.7986 22.1167 49.7386 22.1167 45.3586C22.1167 40.9786 22.2234 36.9186 22.4367 33.1786C22.5699 29.924 23.0799 26.6958 23.9567 23.5586C24.5816 21.1908 25.8279 19.0331 27.5667 17.3086C29.3289 15.7537 31.6295 14.9497 33.9767 15.0687C38.4634 15.0687 41.56 17.4186 43.2667 22.1186C44.9734 26.8186 45.8267 34.5653 45.8267 45.3586C45.8334 56.152 44.98 63.8987 43.2667 68.5987Z" transform="translate(383.936 725.201)" fill="#9A1245"/>
<path d="M43.43 0.00364525C38.9746 -0.0695678 34.5703 0.961074 30.61 3.00365C26.7036 5.15082 23.5251 8.41282 21.48 12.3736H21.16V2.24365H0V88.4636H22.12V31.2536C22.12 21.747 26.02 16.9936 33.82 16.9936C37.1533 16.9936 39.5567 17.8736 41.03 19.6336C42.5033 21.3936 43.2467 24.517 43.26 29.0036V88.4636H65.38V24.5136C65.38 15.847 63.4833 9.59698 59.69 5.76365C55.8967 1.93031 50.4767 0.0103119 43.43 0.00364525Z" transform="translate(463.742 725.206)" fill="#9A1245"/>
<path d="M44.7231 38.9615L31.4231 34.4715C27.6898 33.2982 25.1564 31.8549 23.8231 30.1415C22.5132 28.5052 21.8069 26.4675 21.8231 24.3715C21.8231 21.2715 22.8664 18.9382 24.9531 17.3715C27.0612 15.8162 29.6239 15.0006 32.2431 15.0515C35.8765 15.0515 38.4131 16.0949 39.8531 18.1815C41.2931 20.2682 42.0131 23.5549 42.0131 28.0415H61.8231V24.5315C61.8231 16.7315 59.4198 10.6949 54.6131 6.42153C49.8064 2.14819 42.3798 0.0115261 32.3331 0.0115261C27.4181 -0.100323 22.5185 0.602518 17.8331 2.09153C14.1974 3.2676 10.8416 5.17695 7.9731 7.70152C5.46961 9.96276 3.54568 12.7921 2.3631 15.9515C1.18048 19.1521 0.584295 22.5395 0.603104 25.9515C0.603104 32.0382 2.1531 37.0382 5.2531 40.9515C8.3531 44.8649 12.9464 47.8815 19.0331 50.0015L34.5831 55.6115C36.6423 56.421 38.5417 57.589 40.1931 59.0615C41.0271 59.8803 41.6737 60.8702 42.088 61.9631C42.5023 63.0559 42.6747 64.2256 42.5931 65.3915C42.5931 68.8115 41.5931 71.3749 39.5931 73.0815C37.2655 74.8881 34.3655 75.7968 31.4231 75.6415C27.6831 75.6415 24.8264 74.4915 22.8531 72.1915C20.7758 69.6456 19.7079 66.4242 19.8531 63.1415V60.2715H0.00309804V63.2715C-0.043749 67.0868 0.440907 70.89 1.4431 74.5715C2.32529 77.819 4.05022 80.7755 6.4431 83.1415C9.20995 85.6942 12.5723 87.513 16.2231 88.4315C21.2725 89.7183 26.4737 90.3104 31.6831 90.1915C36.0254 90.2332 40.3569 89.7497 44.5831 88.7515C48.2581 87.8976 51.704 86.2565 54.6831 83.9415C57.5202 81.6901 59.7966 78.8114 61.3331 75.5315C63.0387 71.8033 63.8895 67.7409 63.8231 63.6415C63.8231 57.1282 62.3798 51.9749 59.4931 48.1815C56.6065 44.3882 51.6831 41.3149 44.7231 38.9615Z" transform="translate(540.179 725.188)" fill="#9A1245"/>
<path d="M59.7904 11.94C57.4435 8.15494 54.0832 5.10297 50.0904 3.13C45.9771 1.04333 40.7137 0 34.3004 0C26.8204 0 20.8371 1.23 16.3504 3.69C12.0437 5.97357 8.46202 9.41673 6.01041 13.63C3.52326 18.038 1.89131 22.8761 1.20041 27.89C0.386716 33.4091 -0.0144072 38.9812 0.000395118 44.56C0.000395118 50.0067 0.240396 55.4567 0.720396 60.91C1.11199 66.0233 2.44434 71.0204 4.65042 75.65C6.83683 80.0874 10.2979 83.7713 14.5904 86.23C19.0771 88.8967 25.3271 90.23 33.3404 90.23C43.9204 90.23 51.6671 87.6133 56.5804 82.38C61.4937 77.1467 64.1604 69.5067 64.5804 59.46H44.7304C44.0637 64.9067 42.8871 68.9667 41.2004 71.64C39.5137 74.3133 36.7904 75.6467 33.0304 75.64C31.1762 75.6997 29.3601 75.105 27.9004 73.96C26.4403 72.7485 25.2859 71.2104 24.5304 69.47C23.6256 67.428 23.0065 65.271 22.6904 63.06C22.3115 60.5949 22.1243 58.1041 22.1304 55.61V48.72H65.8804V43.8C65.9224 37.7758 65.4945 31.7576 64.6004 25.8C63.9404 20.9048 62.3048 16.1917 59.7904 11.94ZM22.1304 35.58V32.22C22.1308 30.1772 22.3182 28.1386 22.6904 26.13C23.0276 24.206 23.6476 22.3425 24.5304 20.6C25.3356 19.0074 26.5162 17.6345 27.9704 16.6C29.6101 15.529 31.5437 14.9976 33.5004 15.08C35.4353 15.0008 37.3529 15.4724 39.0304 16.44C40.5249 17.4103 41.6978 18.8025 42.4004 20.44C43.2738 22.4652 43.8433 24.6084 44.0904 26.8C44.4104 29.3133 44.6237 32.2233 44.7304 35.53L22.1304 35.58Z" transform="translate(611.802 725.2)" fill="#9A1245"/>
<path d="M43.43 0.00364525C38.9746 -0.0695678 34.5703 0.961074 30.61 3.00365C26.6998 5.14925 23.5178 8.41139 21.47 12.3736H21.15V2.24365H0V88.4636H22.12V31.2536C22.12 21.747 26.02 16.9936 33.82 16.9936C37.1533 16.9936 39.5567 17.8736 41.03 19.6336C42.5033 21.3936 43.25 24.517 43.27 29.0036V88.4636H65.39V24.5136C65.39 15.847 63.4933 9.59698 59.7 5.76365C55.9067 1.93031 50.4833 0.0103119 43.43 0.00364525Z" transform="translate(689.222 725.206)" fill="#9A1245"/>
<path d="M33.33 0H11.22V24.68H0V39.74H11.22V89.1C11.1613 92.7499 11.429 96.3978 12.02 100C12.4089 102.55 13.4414 104.959 15.02 107C16.6321 108.864 18.8409 110.112 21.27 110.53C24.7306 111.183 28.2491 111.477 31.77 111.41C34.3367 111.41 36.7667 111.33 39.06 111.17C41.3533 111.01 43.73 110.93 46.19 110.93V95.51C45.4433 95.6167 44.6433 95.6967 43.79 95.75C42.93 95.8 42.08 95.83 41.23 95.83C38.0233 95.83 35.9133 95.11 34.9 93.67C33.8867 92.23 33.38 89.8 33.38 86.38V39.74H46.2V24.68H33.33V0Z" transform="translate(762.942 702.77)" fill="#9A1245"/>
<path d="M43.27 57.21C43.27 66.7233 39.3699 71.4767 31.5699 71.47C28.2366 71.47 25.8333 70.59 24.36 68.83C22.8867 67.07 22.14 63.9433 22.12 59.45V0H0V63.94C0 72.6067 1.89661 78.7767 5.68994 82.45C9.48327 86.1233 14.9066 87.9667 21.96 87.98C26.3849 88.0634 30.7702 87.133 34.78 85.26C38.7147 83.254 41.914 80.0547 43.92 76.12H44.22V86.22H65.37V0H43.27V57.21Z" transform="translate(816.782 727.45)" fill="#9A1245"/>
<path d="M64.2933 71.7809V26.4309C64.323 22.8455 63.9201 19.2697 63.0933 15.7809C62.3435 12.6216 60.7662 9.71884 58.5233 7.37087C55.8826 4.78722 52.6321 2.91255 49.0733 1.92087C45.0133 0.640867 39.68 0.000866655 33.0733 0.000866655C29.1061 -0.0226877 25.1507 0.433966 21.2933 1.36087C17.8097 2.17364 14.5336 3.70275 11.6733 5.85087C8.88609 8.01437 6.66016 10.8165 5.18328 14.0209C3.46158 17.9847 2.64188 22.2815 2.78331 26.6009V28.6809H22.6533V26.2809C22.4989 23.3386 23.4075 20.4389 25.2133 18.1109C26.92 16.1109 29.4833 15.1109 32.9033 15.1109C36.6433 15.1109 39.2866 16.0442 40.8333 17.9109C42.38 19.7775 43.1533 22.3675 43.1533 25.6809C43.1533 28.5675 42.5133 30.7575 41.2333 32.2509C39.9533 33.7442 37.6566 34.9209 34.3433 35.7809L21.8433 39.1509C18.452 40.0344 15.156 41.2503 12.0033 42.7809C9.43433 44.0503 7.14593 45.8219 5.2733 47.9909C3.44571 50.1948 2.10625 52.7613 1.34331 55.5209C0.407698 58.9375 -0.043402 62.4687 0.00328548 66.0109C0.0103227 68.9562 0.386585 71.8891 1.12328 74.7409C1.82321 77.5716 3.01831 80.2563 4.65331 82.6709C6.27407 85.0391 8.48307 86.9448 11.0633 88.2009C14.1236 89.6185 17.4722 90.3033 20.8433 90.2009C25.2829 90.3477 29.7111 89.6695 33.9033 88.2009C37.2366 86.8675 40.1999 83.9575 42.7933 79.4709H43.1133C43.4333 80.9709 43.7666 82.4942 44.1133 84.0409C44.4799 85.5774 45.0447 87.0598 45.7933 88.4509H67.0033C66.0098 86.1381 65.2851 83.7189 64.8433 81.2409C64.4136 78.1067 64.2296 74.9437 64.2933 71.7809V71.7809ZM43.1433 62.3209C43.1978 64.423 42.7594 66.5086 41.8633 68.4109C41.0845 70.0246 39.9615 71.448 38.5733 72.5809C37.2666 73.6313 35.7691 74.4191 34.1633 74.9009C32.6567 75.3666 31.0901 75.6092 29.5133 75.6209C28.218 75.7148 26.9232 75.4314 25.7856 74.8049C24.648 74.1784 23.7164 73.2357 23.1033 72.0909C21.758 69.4679 21.0976 66.5474 21.1833 63.6009C21.1833 59.7542 22.1466 56.7075 24.0733 54.4609C26 52.2142 29.2033 50.6109 33.6833 49.6509C35.2709 49.2675 36.8258 48.7592 38.3333 48.1309C40.0603 47.4283 41.6796 46.4857 43.1433 45.3309V62.3209Z" transform="translate(893.999 725.219)" fill="#9A1245"/>
<path d="M76.67 52C76.5 46.17 76.15 40.66 75.58 35.5C74.9976 28.95 73.2038 22.565 70.29 16.67C67.656 11.5259 63.5752 7.26428 58.55 4.41C53.3967 1.47 46.4933 0 37.84 0C29.6466 0 23.1567 1.33333 18.37 4C13.9496 6.35047 10.2615 9.87247 7.70996 14.18C5.366 18.2741 3.86649 22.7965 3.29999 27.48C2.7341 31.9179 2.44021 36.3862 2.41998 40.86H25.55C25.55 32.5267 26.55 26.4633 28.55 22.67C30.55 18.8767 34.1266 16.9867 39.28 17C41.8573 16.8979 44.3862 17.7208 46.41 19.32C48.2833 20.8667 49.7533 23.3767 50.82 26.85C52.0548 31.2961 52.8058 35.8626 53.06 40.47C53.32 43.8567 53.5 47.7033 53.6 52.01H0V116.68H79.8V52H76.67ZM42.78 79.3V91.66C42.78 92.6294 42.3949 93.559 41.7095 94.2445C41.024 94.9299 40.0944 95.315 39.125 95.315C38.1556 95.315 37.226 94.9299 36.5405 94.2445C35.8551 93.559 35.47 92.6294 35.47 91.66V79.3C33.9554 78.4859 32.7559 77.1894 32.0618 75.6162C31.3677 74.043 31.2188 72.2831 31.6385 70.6155C32.0583 68.948 33.0228 67.4684 34.379 66.4113C35.7352 65.3541 37.4055 64.78 39.125 64.78C40.8445 64.78 42.5148 65.3541 43.871 66.4113C45.2272 67.4684 46.1917 68.948 46.6115 70.6155C47.0312 72.2831 46.8822 74.043 46.1881 75.6162C45.494 77.1894 44.2946 78.4859 42.78 79.3V79.3Z" transform="translate(970.452 697)" fill="#6D6E70"/>
<path d="M17.89 20.34C15.54 23.13 13.74 24.34 10 24.34C3 24.34 0 18.49 0 12.17C0 5.85 2.85999 0 9.92999 0C13.43 0 15.57 1.22001 17.75 3.84001L15.34 6.15001C13.84 4.45001 12.42 3.36 9.92999 3.36C4.82999 3.36 3.47 8.09 3.47 12.17C3.47 16.25 4.82999 20.98 9.92999 20.98C12.45 20.98 13.93 19.82 15.44 17.98L17.89 20.34Z" transform="translate(423.112 875.73)" fill="#6D6E70"/>
<path d="M17.68 23.73H14.28V13.08H3.40001V23.72H0V0H3.40001V9.92H14.28V0.0299988H17.68V23.73Z" transform="translate(458.202 876.08)" fill="#6D6E70"/>
<path d="M9.69 24.28C2.55 24.28 0 18.4 0 12.14C0 5.88 2.55 0 9.69 0C16.83 0 19.38 5.85 19.38 12.14C19.38 18.43 16.81 24.28 9.69 24.28ZM9.69 3.34C4.45 3.34 3.40001 8.06999 3.40001 12.15C3.40001 16.23 4.45 20.96 9.69 20.96C14.93 20.96 15.95 16.23 15.95 12.15C15.95 8.06999 14.94 3.34 9.69 3.34V3.34Z" transform="translate(493.312 875.8)" fill="#6D6E70"/>
<path d="M3.40001 23.73H0V0H3.40001V23.73Z" transform="translate(530.452 876.08)" fill="#6D6E70"/>
<path d="M17.89 20.34C15.54 23.13 13.74 24.34 10 24.34C3 24.34 0 18.49 0 12.17C0 5.85 2.85999 0 9.92999 0C13.43 0 15.57 1.22001 17.75 3.84001L15.34 6.15001C13.84 4.45001 12.42 3.36 9.92999 3.36C4.82999 3.36 3.47 8.09 3.47 12.17C3.47 16.25 4.82999 20.98 9.92999 20.98C12.45 20.98 13.93 19.82 15.44 17.98L17.89 20.34Z" transform="translate(551.562 875.73)" fill="#6D6E70"/>
<path d="M15.7 23.73H0V0H15.71V3.33H3.38V9.92H14.12V13.12H3.38V20.43H15.69L15.7 23.73Z" transform="translate(586.622 876.08)" fill="#6D6E70"/>
<path d="M16.8 24.1882C16.15 23.5782 15.13 22.6282 14.35 21.9082C12.41 23.4682 9.9666 24.2649 7.47998 24.1482C3.32998 24.1482 0 21.6982 0 17.4182C0 14.1882 1.53 12.3182 4.25 10.4182C2.96 8.6482 2.03998 7.25819 2.03998 5.17819C2.12452 3.77684 2.74081 2.4606 3.76297 1.49825C4.78513 0.535891 6.13608 0 7.53998 0C8.94388 0 10.2949 0.535891 11.317 1.49825C12.3392 2.4606 12.9554 3.77684 13.04 5.17819C13.04 7.92819 10.9 9.76819 8.51999 11.2682C10.2199 13.4458 12.0712 15.5009 14.06 17.4182C14.9964 16.0209 15.4815 14.3699 15.45 12.6882H18.58C18.6656 15.192 17.8732 17.6469 16.34 19.6282C17.12 20.3782 18.11 21.2982 18.89 22.0782L16.8 24.1882ZM6.15997 12.8682C4.42997 14.0282 3.29999 15.2182 3.29999 17.3182C3.29999 19.8682 5.57998 21.1582 7.88998 21.1582C9.45149 21.1633 10.9656 20.6221 12.17 19.6282C9.98058 17.5474 7.97014 15.2861 6.15997 12.8682V12.8682ZM7.54999 2.73819C7.22777 2.72966 6.90724 2.78753 6.60834 2.90816C6.30943 3.02879 6.03854 3.20962 5.8125 3.43941C5.58646 3.6692 5.41013 3.94303 5.29443 4.24388C5.17874 4.54473 5.12616 4.86615 5.13998 5.18819C5.28601 6.58624 5.88268 7.89891 6.84 8.92819C8.3 8.00819 9.84 6.92819 9.84 5.11819C9.85212 4.80998 9.80184 4.5025 9.6922 4.21419C9.58256 3.92588 9.4158 3.66269 9.20193 3.44041C8.98807 3.21814 8.7315 3.04137 8.44763 2.9207C8.16376 2.80003 7.85844 2.73795 7.54999 2.73819V2.73819Z" transform="translate(642.952 875.992)" fill="#6D6E70"/>
<path d="M17.89 20.34C15.54 23.13 13.74 24.34 10 24.34C3 24.34 0 18.49 0 12.17C0 5.85 2.85999 0 9.92999 0C13.43 0 15.57 1.22001 17.75 3.84001L15.34 6.15001C13.84 4.45001 12.42 3.36 9.92999 3.36C4.82999 3.36 3.47 8.09 3.47 12.17C3.47 16.25 4.82999 20.98 9.92999 20.98C12.45 20.98 13.93 19.82 15.44 17.98L17.89 20.34Z" transform="translate(702.852 875.73)" fill="#6D6E70"/>
<path d="M9.69 24.28C2.55 24.28 0 18.4 0 12.14C0 5.88 2.55 0 9.69 0C16.83 0 19.38 5.85 19.38 12.14C19.38 18.43 16.8 24.28 9.69 24.28ZM9.69 3.34C4.46 3.34 3.40002 8.06999 3.40002 12.15C3.40002 16.23 4.45 20.96 9.69 20.96C14.93 20.96 15.95 16.23 15.95 12.15C15.95 8.06999 14.93 3.34 9.69 3.34V3.34Z" transform="translate(736.552 875.8)" fill="#6D6E70"/>
<path d="M16.89 23.73H13.97L3.39999 6.83V23.73H0V0H3L13.49 16.92V0.0200043H16.89V23.73Z" transform="translate(773.422 876.08)" fill="#6D6E70"/>
<path d="M17.68 3.33H10.54V23.73H7.14001V3.33H0V0H17.68V3.33Z" transform="translate(807.242 876.08)" fill="#6D6E70"/>
<path d="M10.78 13.15C11.3548 13.6535 11.8386 14.2522 12.21 14.92L17.6801 23.73H13.7401L8.84003 15.5C8.13003 14.28 7.55001 13.5 5.95001 13.5H3.40002V23.73H0V0H8.43005C12.9501 0 16.32 2 16.32 6.83C16.32 10.13 14.32 12.47 10.78 13.15ZM8.43005 3.28999H3.43005V10.5H8.43005C10.9501 10.5 12.92 9.75 12.92 6.86C12.92 3.97 10.8801 3.28999 8.43005 3.28999Z" transform="translate(841.852 876.08)" fill="#6D6E70"/>
<path d="M9.69 24.28C2.55 24.28 0 18.4 0 12.14C0 5.88 2.55 0 9.69 0C16.83 0 19.38 5.85 19.38 12.14C19.38 18.43 16.79 24.28 9.69 24.28ZM9.69 3.34C4.45 3.34 3.40002 8.06999 3.40002 12.15C3.40002 16.23 4.45 20.96 9.69 20.96C14.93 20.96 15.96 16.2 15.96 12.14C15.96 8.08 14.96 3.34 9.69 3.34V3.34Z" transform="translate(875.042 875.8)" fill="#6D6E70"/>
<path d="M14.32 23.73H0V0H3.37V20.5H14.32V23.73Z" transform="translate(911.892 876.08)" fill="#6D6E70"/>
<rect width="4" height="4" transform="translate(1206.09 553.626) rotate(-12.9461)" fill="#A5530C"/>
<rect width="4" height="4" transform="translate(1195.14 568.457) rotate(-12.9461)" fill="#A5530C"/>
<rect width="3" height="3" transform="translate(1192 554.813) rotate(-12.9461)" fill="#A5530C"/>
<rect width="2" height="2" transform="translate(1197.03 545.448) rotate(-12.9461)" fill="#A5530C"/>
<rect width="4" height="4" transform="translate(1255.53 617.84) rotate(171.765)" fill="#A5530C"/>
<rect width="4" height="4" transform="translate(1267.67 603.959) rotate(171.765)" fill="#A5530C"/>
<g opacity="0.28" transform="translate(594.048 81.8606) rotate(20.1964)">
<path d="M47 0C47 0 5.85 22.34 0 67Z" fill="white"/>
<path d="M47 0C47 0 5.85 22.34 0 67Z" fill="white"/>
</g>
<g opacity="0.28" transform="translate(723.895 295.985) rotate(-176.176)">
<path d="M47 0C47 0 5.85 22.34 0 67Z" fill="white"/>
<path d="M47 0C47 0 5.85 22.34 0 67Z" fill="white"/>
</g>
<g opacity="0.1" transform="translate(880.457 380.868) rotate(-163.142)">
<path d="M47 0C47 0 5.85 22.34 0 67Z" fill="white"/>
<path d="M47 0C47 0 5.85 22.34 0 67Z" fill="white"/>
</g>
<g opacity="0.1" transform="translate(551.654 353.202) rotate(-173.04)">
<path d="M47 0C47 0 5.85 22.34 0 67Z" fill="white"/>
<path d="M47 0C47 0 5.85 22.34 0 67Z" fill="white"/>
</g>
<rect width="3" height="3" transform="translate(1269.67 617.814) rotate(171.765)" fill="#A5530C"/>
<rect width="2" height="2" transform="translate(1263.89 626.735) rotate(171.765)" fill="#A5530C"/>
<rect width="4" height="4" transform="translate(1015.53 81.8402) rotate(171.765)" fill="#A5530C"/>
<rect width="4" height="4" transform="translate(1027.67 67.9588) rotate(171.765)" fill="#A5530C"/>
<rect width="3" height="3" transform="translate(1029.67 81.8144) rotate(171.765)" fill="#A5530C"/>
<rect width="2" height="2" transform="translate(1023.89 90.7346) rotate(171.765)" fill="#A5530C"/>
<rect width="4" height="4" transform="translate(1028.05 117.978) rotate(-132.512)" fill="#A5530C"/>
<rect width="4" height="4" transform="translate(1046.36 120.189) rotate(-132.512)" fill="#A5530C"/>
<rect width="3" height="3" transform="translate(1036.04 129.65) rotate(-132.512)" fill="#A5530C"/>
<rect width="2" height="2" transform="translate(1025.41 129.896) rotate(-132.512)" fill="#A5530C"/>
<rect width="4" height="4" transform="translate(265 25)" fill="#A5530C"/>
<rect width="4" height="4" transform="translate(251 37)" fill="#A5530C"/>
<rect width="3" height="3" transform="translate(251 23)" fill="#A5530C"/>
<rect width="2" height="2" transform="translate(258 15)" fill="#A5530C"/>
<rect width="4" height="4" transform="translate(48 391)" fill="#A5530C"/>
<rect width="4" height="4" transform="translate(34 403)" fill="#A5530C"/>
<rect width="3" height="3" transform="translate(34 389)" fill="#A5530C"/>
<rect width="2" height="2" transform="translate(41 381)" fill="#A5530C"/>
<rect width="4" height="4" transform="translate(116.195 849.046) rotate(44.3088)" fill="#A5530C"/>
<rect width="4" height="4" transform="translate(94.7941 842) rotate(44.3088)" fill="#A5530C"/>
<rect width="4" height="4" transform="translate(115.794 887) rotate(44.3088)" fill="#A5530C"/>
<rect width="3" height="3" transform="translate(107.573 837.835) rotate(44.3088)" fill="#A5530C"/>
<rect width="2" height="2" transform="translate(118.171 837) rotate(44.3088)" fill="#A5530C"/>
<rect width="2" height="2" transform="translate(101.397 900) rotate(44.3088)" fill="#A5530C"/>
<defs>
<linearGradient id="paint0_linear" x2="1" gradientUnits="userSpaceOnUse" gradientTransform="translate(84.57 64.38) scale(64.38 -64.38) rotate(90)">
<stop stop-color="#808080" stop-opacity="0.25"/>
<stop offset="0.54" stop-color="#808080" stop-opacity="0.12"/>
<stop offset="1" stop-color="#808080" stop-opacity="0.1"/>
</linearGradient>
<linearGradient id="paint1_linear" x2="1" gradientUnits="userSpaceOnUse" gradientTransform="translate(-34744.8 13554) scale(6744.45 -4144.78)">
<stop stop-color="#808080" stop-opacity="0.25"/>
<stop offset="0.54" stop-color="#808080" stop-opacity="0.12"/>
<stop offset="1" stop-color="#808080" stop-opacity="0.1"/>
</linearGradient>
<linearGradient id="paint2_linear" x2="1" gradientUnits="userSpaceOnUse" gradientTransform="translate(-47451 16872.7) scale(6744.45 -4144.78)">
<stop stop-color="#808080" stop-opacity="0.25"/>
<stop offset="0.54" stop-color="#808080" stop-opacity="0.12"/>
<stop offset="1" stop-color="#808080" stop-opacity="0.1"/>
</linearGradient>
<linearGradient id="paint3_linear" x2="1" gradientUnits="userSpaceOnUse" gradientTransform="translate(4461.63 19512.7) scale(6744.45 -4144.78) rotate(90)">
<stop stop-color="#808080" stop-opacity="0.25"/>
<stop offset="0.54" stop-color="#808080" stop-opacity="0.12"/>
<stop offset="1" stop-color="#808080" stop-opacity="0.1"/>
</linearGradient>
<linearGradient id="paint4_linear" x2="1" gradientUnits="userSpaceOnUse" gradientTransform="translate(-4852.06 5808.23) scale(6744.45 -4144.78)">
<stop stop-color="#808080" stop-opacity="0.25"/>
<stop offset="0.54" stop-color="#808080" stop-opacity="0.12"/>
<stop offset="1" stop-color="#808080" stop-opacity="0.1"/>
</linearGradient>
<linearGradient id="paint5_linear" x2="1" gradientUnits="userSpaceOnUse" gradientTransform="translate(-40946.9 -2382.85) scale(6744.45 -4144.78)">
<stop stop-color="#808080" stop-opacity="0.25"/>
<stop offset="0.54" stop-color="#808080" stop-opacity="0.12"/>
<stop offset="1" stop-color="#808080" stop-opacity="0.1"/>
</linearGradient>
<linearGradient id="paint6_linear" x2="1" gradientUnits="userSpaceOnUse" gradientTransform="translate(-30070.4 28506) scale(6745.5 -4145.43) rotate(90)">
<stop stop-color="#808080" stop-opacity="0.25"/>
<stop offset="0.54" stop-color="#808080" stop-opacity="0.12"/>
<stop offset="1" stop-color="#808080" stop-opacity="0.1"/>
</linearGradient>
<linearGradient id="paint7_linear" x2="1" gradientUnits="userSpaceOnUse" gradientTransform="translate(-33937.2 -8687.43) scale(6744.45 -4144.78)">
<stop stop-color="#808080" stop-opacity="0.25"/>
<stop offset="0.54" stop-color="#808080" stop-opacity="0.12"/>
<stop offset="1" stop-color="#808080" stop-opacity="0.1"/>
</linearGradient>
<linearGradient id="paint8_linear" x2="1" gradientUnits="userSpaceOnUse" gradientTransform="translate(-77451.8 4067.31) scale(6744.45 -4144.78)">
<stop stop-color="#808080" stop-opacity="0.25"/>
<stop offset="0.54" stop-color="#808080" stop-opacity="0.12"/>
<stop offset="1" stop-color="#808080" stop-opacity="0.1"/>
</linearGradient>
<linearGradient id="paint9_linear" x2="1" gradientUnits="userSpaceOnUse" gradientTransform="translate(-23536.5 17531.1) scale(6744.45 -4144.78) rotate(90)">
<stop stop-color="#808080" stop-opacity="0.25"/>
<stop offset="0.54" stop-color="#808080" stop-opacity="0.12"/>
<stop offset="1" stop-color="#808080" stop-opacity="0.1"/>
</linearGradient>
<linearGradient id="paint10_linear" x2="1" gradientUnits="userSpaceOnUse" gradientTransform="translate(-15064.6 -10161.4) scale(6744.45 -4144.78)">
<stop stop-color="#808080" stop-opacity="0.25"/>
<stop offset="0.54" stop-color="#808080" stop-opacity="0.12"/>
<stop offset="1" stop-color="#808080" stop-opacity="0.1"/>
</linearGradient>
<linearGradient id="paint11_linear" x2="1" gradientUnits="userSpaceOnUse" gradientTransform="translate(-68664.8 -6184.81) scale(6744.45 -4144.78)">
<stop stop-color="#808080" stop-opacity="0.25"/>
<stop offset="0.54" stop-color="#808080" stop-opacity="0.12"/>
<stop offset="1" stop-color="#808080" stop-opacity="0.1"/>
</linearGradient>
<linearGradient id="paint12_linear" x2="1" gradientUnits="userSpaceOnUse" gradientTransform="translate(40078 93982.8) scale(9436.47 18802.4)">
<stop stop-color="#808080" stop-opacity="0.25"/>
<stop offset="0.54" stop-color="#808080" stop-opacity="0.12"/>
<stop offset="1" stop-color="#808080" stop-opacity="0.1"/>
</linearGradient>
<linearGradient id="paint13_linear" x2="1" gradientUnits="userSpaceOnUse" gradientTransform="translate(18832.2 95748.1) scale(868.945 5215.63)">
<stop stop-color="#808080" stop-opacity="0.25"/>
<stop offset="0.54" stop-color="#808080" stop-opacity="0.12"/>
<stop offset="1" stop-color="#808080" stop-opacity="0.1"/>
</linearGradient>
<linearGradient id="paint14_linear" x2="1" gradientUnits="userSpaceOnUse" gradientTransform="translate(7493.73 102845) scale(432.086 6457.94)">
<stop stop-color="#808080" stop-opacity="0.25"/>
<stop offset="0.54" stop-color="#808080" stop-opacity="0.12"/>
<stop offset="1" stop-color="#808080" stop-opacity="0.1"/>
</linearGradient>
</defs>
</svg>
